<svg xmlns="http://www.w3.org/2000/svg" xmlns:xlink="http://www.w3.org/1999/xlink" contentStyleType="text/css" height="993px" preserveAspectRatio="none" style="width:2157px;height:993px;background:#FFFFFF;" version="1.1" viewBox="0 0 2157 993" width="2157px" zoomAndPan="magnify"><title>Lu&#7891;ng h&#7911;y &#273;&#417;n h&#224;ng</title><defs/><g><text fill="#000000" font-family="sans-serif" font-size="14" font-weight="bold" lengthAdjust="spacing" textLength="149.4746" x="1002.6168" y="33.5352">Lu&#7891;ng h&#7911;y &#273;&#417;n h&#224;ng</text><text fill="#000000" font-family="sans-serif" font-size="14" font-weight="bold" lengthAdjust="spacing" textLength="395.6436" x="879.5323" y="50.0234">Swimlanes: Kh&#225;ch h&#224;ng | H&#7879; th&#7889;ng | Ng&#432;&#7901;i b&#225;n | &#272;VVC</text><rect fill="none" height="21.1992" style="stroke:none;stroke-width:1;" width="2124.7083" x="15" y="66.2734"/><ellipse cx="308.5386" cy="102.4727" fill="#222222" rx="10" ry="10" style="stroke:#222222;stroke-width:1;"/><polygon fill="#FEFECE" points="260.3599,180.9502,356.7173,180.9502,368.7173,192.9502,356.7173,204.9502,260.3599,204.9502,248.3599,192.9502,260.3599,180.9502" style="stroke:#A80036;stroke-width:0.5;"/><text fill="#000000" font-family="sans-serif" font-size="11" lengthAdjust="spacing" textLength="96.3574" x="260.3599" y="197.1074">status = pending?</text><text fill="#000000" font-family="sans-serif" font-size="11" lengthAdjust="spacing" textLength="12.3911" x="235.9688" y="190.6299">c&#243;</text><text fill="#000000" font-family="sans-serif" font-size="11" lengthAdjust="spacing" textLength="80.8457" x="368.7173" y="190.6299">kh&#244;ng pending</text><rect fill="#FEFECE" height="34.1328" rx="12.5" ry="12.5" style="stroke:#A80036;stroke-width:0.5;" width="204.9688" x="21" y="224.9502"/><text fill="#000000" font-family="sans-serif" font-size="12" lengthAdjust="spacing" textLength="184.9688" x="31" y="246.5518">G&#7885;i func_cancel_order(order_id)</text><polygon fill="#FEFECE" points="267.5088,132.4727,349.5684,132.4727,361.5684,144.4727,349.5684,156.4727,267.5088,156.4727,255.5088,144.4727,267.5088,132.4727" style="stroke:#A80036;stroke-width:0.5;"/><text fill="#000000" font-family="sans-serif" font-size="11" lengthAdjust="spacing" textLength="12.3911" x="312.5386" y="167.1074">c&#243;</text><text fill="#000000" font-family="sans-serif" font-size="11" lengthAdjust="spacing" textLength="82.0596" x="267.5088" y="148.6299">Mu&#7889;n h&#7911;y &#273;&#417;n?</text><text fill="#000000" font-family="sans-serif" font-size="11" lengthAdjust="spacing" textLength="33.6982" x="361.5684" y="142.1523">kh&#244;ng</text><line style="stroke:#000000;stroke-width:1.5;" x1="15" x2="15" y1="66.2734" y2="897.1992"/><rect fill="none" height="329.9746" style="stroke:#000000;stroke-width:1.5;" width="230.6062" x="460.563" y="294.083"/><path d="M593.5347,294.083 L593.5347,303.5713 L583.5347,313.5713 L460.563,313.5713 " fill="none" style="stroke:#000000;stroke-width:1.5;"/><text fill="#000000" font-family="sans-serif" font-size="14" lengthAdjust="spacing" textLength="122.9717" x="463.563" y="308.6182">func_cancel_order</text><rect fill="#FEFECE" height="34.1328" rx="12.5" ry="12.5" style="stroke:#A80036;stroke-width:0.5;" width="172.8652" x="480.2944" y="330.5713"/><text fill="#000000" font-family="sans-serif" font-size="12" lengthAdjust="spacing" textLength="152.8652" x="490.2944" y="352.1729">Ki&#7875;m tra status = pending</text><rect fill="#FEFECE" height="48.2656" rx="12.5" ry="12.5" style="stroke:#A80036;stroke-width:0.5;" width="133.5898" x="499.9321" y="399.7041"/><text fill="#000000" font-family="sans-serif" font-size="12" lengthAdjust="spacing" textLength="89.6016" x="509.9321" y="421.3057">UPDATE Orders</text><text fill="#000000" font-family="sans-serif" font-size="12" lengthAdjust="spacing" textLength="113.5898" x="509.9321" y="435.4385">status -&gt; cancelled</text><rect fill="#FEFECE" height="34.1328" rx="12.5" ry="12.5" style="stroke:#A80036;stroke-width:0.5;" width="188.3281" x="472.563" y="531.4473"/><text fill="#000000" font-family="sans-serif" font-size="12" lengthAdjust="spacing" textLength="168.3281" x="482.563" y="553.0488">payment_status -&gt; refunded</text><polygon fill="#FEFECE" points="503.0393,482.9697,630.4148,482.9697,642.4148,494.9697,630.4148,506.9697,503.0393,506.9697,491.0393,494.9697,503.0393,482.9697" style="stroke:#A80036;stroke-width:0.5;"/><text fill="#000000" font-family="sans-serif" font-size="11" lengthAdjust="spacing" textLength="12.3911" x="570.7271" y="517.6045">c&#243;</text><text fill="#000000" font-family="sans-serif" font-size="11" lengthAdjust="spacing" textLength="127.3755" x="503.0393" y="499.127">payment_status = paid?</text><text fill="#000000" font-family="sans-serif" font-size="11" lengthAdjust="spacing" textLength="36.7544" x="642.4148" y="492.6494">unpaid</text><polygon fill="#FEFECE" points="566.7271,588.0576,578.7271,600.0576,566.7271,612.0576,554.7271,600.0576,566.7271,588.0576" style="stroke:#A80036;stroke-width:0.5;"/><rect fill="#FEFECE" height="48.2656" rx="12.5" ry="12.5" style="stroke:#A80036;stroke-width:0.5;" width="172.8418" x="480.3062" y="644.0576"/><text fill="#000000" font-family="sans-serif" font-size="12" lengthAdjust="spacing" textLength="152.8418" x="490.3062" y="665.6592">trg_orders_validate_status</text><text fill="#000000" font-family="sans-serif" font-size="12" lengthAdjust="spacing" textLength="125.9414" x="490.3062" y="679.792">pending -&gt; cancelled</text><rect fill="#FEFECE" height="48.2656" rx="12.5" ry="12.5" style="stroke:#A80036;stroke-width:0.5;" width="164.7324" x="484.3608" y="712.3232"/><text fill="#000000" font-family="sans-serif" font-size="12" lengthAdjust="spacing" textLength="144.7324" x="494.3608" y="733.9248">trg_orders_restore_stock</text><text fill="#000000" font-family="sans-serif" font-size="12" lengthAdjust="spacing" textLength="133.3828" x="494.3608" y="748.0576">(AFTER UPDATE status)</text><rect fill="#98FB98" height="34.1328" rx="12.5" ry="12.5" style="stroke:#A80036;stroke-width:0.5;" width="161.5859" x="485.9341" y="780.5889"/><text fill="#000000" font-family="sans-serif" font-size="12" lengthAdjust="spacing" textLength="141.5859" x="495.9341" y="802.1904">&#272;&#417;n &#273;&#227; h&#7911;y &#8212; ho&#224;n kho</text><ellipse cx="566.7271" cy="845.7217" fill="none" rx="11" ry="11" style="stroke:#222222;stroke-width:1;"/><ellipse cx="566.7271" cy="845.7217" fill="#222222" rx="6" ry="6" style="stroke:#222222;stroke-width:1;"/><rect fill="#FEFECE" height="34.1328" rx="12.5" ry="12.5" style="stroke:#A80036;stroke-width:0.5;" width="172.8418" x="701.1692" y="338.083"/><text fill="#000000" font-family="sans-serif" font-size="12" lengthAdjust="spacing" textLength="152.8418" x="711.1692" y="359.6846">trg_orders_validate_status</text><rect fill="#FEFECE" height="34.1328" rx="12.5" ry="12.5" style="stroke:#A80036;stroke-width:0.5;" width="164.7324" x="705.2239" y="407.2158"/><text fill="#000000" font-family="sans-serif" font-size="12" lengthAdjust="spacing" textLength="144.7324" x="715.2239" y="428.8174">trg_orders_restore_stock</text><rect fill="#98FB98" height="34.1328" rx="12.5" ry="12.5" style="stroke:#A80036;stroke-width:0.5;" width="161.5859" x="706.7971" y="476.3486"/><text fill="#000000" font-family="sans-serif" font-size="12" lengthAdjust="spacing" textLength="141.5859" x="716.7971" y="497.9502">&#272;&#417;n &#273;&#227; h&#7911;y &#8212; ho&#224;n kho</text><ellipse cx="787.5901" cy="556.4814" fill="none" rx="11" ry="11" style="stroke:#222222;stroke-width:1;"/><ellipse cx="787.5901" cy="556.4814" fill="#222222" rx="6" ry="6" style="stroke:#222222;stroke-width:1;"/><rect fill="#FEFECE" height="34.1328" rx="12.5" ry="12.5" style="stroke:#A80036;stroke-width:0.5;" width="172.8418" x="884.011" y="382.083"/><text fill="#000000" font-family="sans-serif" font-size="12" lengthAdjust="spacing" textLength="152.8418" x="894.011" y="403.6846">trg_orders_validate_status</text><rect fill="#FEFECE" height="34.1328" rx="12.5" ry="12.5" style="stroke:#A80036;stroke-width:0.5;" width="164.7324" x="888.0657" y="451.2158"/><text fill="#000000" font-family="sans-serif" font-size="12" lengthAdjust="spacing" textLength="144.7324" x="898.0657" y="472.8174">trg_orders_restore_stock</text><rect fill="#98FB98" height="34.1328" rx="12.5" ry="12.5" style="stroke:#A80036;stroke-width:0.5;" width="161.5859" x="889.6389" y="520.3486"/><text fill="#000000" font-family="sans-serif" font-size="12" lengthAdjust="spacing" textLength="141.5859" x="899.6389" y="541.9502">&#272;&#417;n &#273;&#227; h&#7911;y &#8212; ho&#224;n kho</text><ellipse cx="970.4319" cy="598.4814" fill="none" rx="11" ry="11" style="stroke:#222222;stroke-width:1;"/><ellipse cx="970.4319" cy="598.4814" fill="#222222" rx="6" ry="6" style="stroke:#222222;stroke-width:1;"/><rect fill="#FFC0CB" height="34.1328" rx="12.5" ry="12.5" style="stroke:#A80036;stroke-width:0.5;" width="201.5762" x="1066.8528" y="312.9502"/><text fill="#000000" font-family="sans-serif" font-size="12" lengthAdjust="spacing" textLength="181.5762" x="1076.8528" y="334.5518">Kh&#244;ng th&#7875; h&#7911;y &#7903; tr&#7841;ng th&#225;i n&#224;y</text><ellipse cx="1167.6409" cy="393.083" fill="none" rx="11" ry="11" style="stroke:#222222;stroke-width:1;"/><ellipse cx="1167.6409" cy="393.083" fill="#222222" rx="6" ry="6" style="stroke:#222222;stroke-width:1;"/><ellipse cx="860.9536" cy="144.4727" fill="none" rx="11" ry="11" style="stroke:#222222;stroke-width:1;"/><ellipse cx="860.9536" cy="144.4727" fill="#222222" rx="6" ry="6" style="stroke:#222222;stroke-width:1;"/><line style="stroke:#000000;stroke-width:1.5;" x1="454.563" x2="454.563" y1="66.2734" y2="897.1992"/><polygon fill="#FEFECE" points="1505.0078,224.9502,1611.9624,224.9502,1623.9624,236.9502,1611.9624,248.9502,1505.0078,248.9502,1493.0078,236.9502,1505.0078,224.9502" style="stroke:#A80036;stroke-width:0.5;"/><text fill="#000000" font-family="sans-serif" font-size="11" lengthAdjust="spacing" textLength="106.9546" x="1505.0078" y="241.1074">status = confirmed?</text><text fill="#000000" font-family="sans-serif" font-size="11" lengthAdjust="spacing" textLength="12.3911" x="1480.6167" y="234.6299">c&#243;</text><text fill="#000000" font-family="sans-serif" font-size="11" lengthAdjust="spacing" textLength="33.6982" x="1623.9624" y="234.6299">kh&#244;ng</text><rect fill="#FEFECE" height="34.1328" rx="12.5" ry="12.5" style="stroke:#A80036;stroke-width:0.5;" width="194.6211" x="1278.429" y="268.9502"/><text fill="#000000" font-family="sans-serif" font-size="12" lengthAdjust="spacing" textLength="174.6211" x="1288.429" y="290.5518">H&#7911;y &#273;&#417;n (status -&gt; cancelled)</text><line style="stroke:#000000;stroke-width:1.5;" x1="1272.429" x2="1272.429" y1="66.2734" y2="897.1992"/><polygon fill="#FEFECE" points="1857.3333,268.9502,1956.3494,268.9502,1968.3494,280.9502,1956.3494,292.9502,1857.3333,292.9502,1845.3333,280.9502,1857.3333,268.9502" style="stroke:#A80036;stroke-width:0.5;"/><text fill="#000000" font-family="sans-serif" font-size="11" lengthAdjust="spacing" textLength="99.0161" x="1857.3333" y="285.1074">status = shipping?</text><text fill="#000000" font-family="sans-serif" font-size="11" lengthAdjust="spacing" textLength="12.3911" x="1832.9421" y="278.6299">c&#243;</text><text fill="#000000" font-family="sans-serif" font-size="11" lengthAdjust="spacing" textLength="164.5112" x="1968.3494" y="278.6299">delivered / received / returned</text><rect fill="#FEFECE" height="34.1328" rx="12.5" ry="12.5" style="stroke:#A80036;stroke-width:0.5;" width="237.0488" x="1668.6606" y="312.9502"/><text fill="#000000" font-family="sans-serif" font-size="12" lengthAdjust="spacing" textLength="217.0488" x="1678.6606" y="334.5518">H&#7911;y v&#7853;n chuy&#7875;n (status -&gt; cancelled)</text><line style="stroke:#000000;stroke-width:1.5;" x1="1662.6606" x2="1662.6606" y1="66.2734" y2="897.1992"/><line style="stroke:#000000;stroke-width:1.5;" x1="2137.8606" x2="2137.8606" y1="66.2734" y2="897.1992"/><line style="stroke:#181818;stroke-width:1;" x1="248.3599" x2="123.4844" y1="192.9502" y2="192.9502"/><line style="stroke:#181818;stroke-width:1;" x1="123.4844" x2="123.4844" y1="192.9502" y2="224.9502"/><polygon fill="#181818" points="119.4844,214.9502,123.4844,224.9502,127.4844,214.9502,123.4844,218.9502" style="stroke:#181818;stroke-width:1;"/><line style="stroke:#181818;stroke-width:1;" x1="308.5386" x2="308.5386" y1="156.4727" y2="180.9502"/><polygon fill="#181818" points="304.5386,170.9502,308.5386,180.9502,312.5386,170.9502,308.5386,174.9502" style="stroke:#181818;stroke-width:1;"/><line style="stroke:#181818;stroke-width:1;" x1="308.5386" x2="308.5386" y1="112.4727" y2="132.4727"/><polygon fill="#181818" points="304.5386,122.4727,308.5386,132.4727,312.5386,122.4727,308.5386,126.4727" style="stroke:#181818;stroke-width:1;"/><line style="stroke:#181818;stroke-width:1;" x1="566.7271" x2="566.7271" y1="364.7041" y2="399.7041"/><polygon fill="#181818" points="562.7271,389.7041,566.7271,399.7041,570.7271,389.7041,566.7271,393.7041" style="stroke:#181818;stroke-width:1;"/><line style="stroke:#181818;stroke-width:1;" x1="566.7271" x2="566.7271" y1="506.9697" y2="531.4473"/><polygon fill="#181818" points="562.7271,521.4473,566.7271,531.4473,570.7271,521.4473,566.7271,525.4473" style="stroke:#181818;stroke-width:1;"/><line style="stroke:#181818;stroke-width:1;" x1="642.4148" x2="670.8911" y1="494.9697" y2="494.9697"/><polygon fill="#181818" points="666.8911,538.5137,670.8911,548.5137,674.8911,538.5137,670.8911,542.5137" style="stroke:#181818;stroke-width:1;"/><line style="stroke:#181818;stroke-width:1;" x1="670.8911" x2="670.8911" y1="494.9697" y2="600.0576"/><line style="stroke:#181818;stroke-width:1;" x1="670.8911" x2="578.7271" y1="600.0576" y2="600.0576"/><polygon fill="#181818" points="588.7271,596.0576,578.7271,600.0576,588.7271,604.0576,584.7271,600.0576" style="stroke:#181818;stroke-width:1;"/><line style="stroke:#181818;stroke-width:1;" x1="566.7271" x2="566.7271" y1="565.5801" y2="588.0576"/><polygon fill="#181818" points="562.7271,578.0576,566.7271,588.0576,570.7271,578.0576,566.7271,582.0576" style="stroke:#181818;stroke-width:1;"/><line style="stroke:#181818;stroke-width:1;" x1="566.7271" x2="566.7271" y1="447.9697" y2="482.9697"/><polygon fill="#181818" points="562.7271,472.9697,566.7271,482.9697,570.7271,472.9697,566.7271,476.9697" style="stroke:#181818;stroke-width:1;"/><line style="stroke:#181818;stroke-width:1;" x1="566.7271" x2="566.7271" y1="612.0576" y2="644.0576"/><polygon fill="#181818" points="562.7271,634.0576,566.7271,644.0576,570.7271,634.0576,566.7271,638.0576" style="stroke:#181818;stroke-width:1;"/><line style="stroke:#181818;stroke-width:1;" x1="566.7271" x2="566.7271" y1="692.3232" y2="712.3232"/><polygon fill="#181818" points="562.7271,702.3232,566.7271,712.3232,570.7271,702.3232,566.7271,706.3232" style="stroke:#181818;stroke-width:1;"/><line style="stroke:#181818;stroke-width:1;" x1="566.7271" x2="566.7271" y1="760.5889" y2="780.5889"/><polygon fill="#181818" points="562.7271,770.5889,566.7271,780.5889,570.7271,770.5889,566.7271,774.5889" style="stroke:#181818;stroke-width:1;"/><line style="stroke:#181818;stroke-width:1;" x1="566.7271" x2="566.7271" y1="814.7217" y2="834.7217"/><polygon fill="#181818" points="562.7271,824.7217,566.7271,834.7217,570.7271,824.7217,566.7271,828.7217" style="stroke:#181818;stroke-width:1;"/><line style="stroke:#181818;stroke-width:1;" x1="787.5901" x2="787.5901" y1="372.2158" y2="407.2158"/><polygon fill="#181818" points="783.5901,397.2158,787.5901,407.2158,791.5901,397.2158,787.5901,401.2158" style="stroke:#181818;stroke-width:1;"/><line style="stroke:#181818;stroke-width:1;" x1="787.5901" x2="787.5901" y1="441.3486" y2="476.3486"/><polygon fill="#181818" points="783.5901,466.3486,787.5901,476.3486,791.5901,466.3486,787.5901,470.3486" style="stroke:#181818;stroke-width:1;"/><line style="stroke:#181818;stroke-width:1;" x1="787.5901" x2="787.5901" y1="510.4814" y2="545.4814"/><polygon fill="#181818" points="783.5901,535.4814,787.5901,545.4814,791.5901,535.4814,787.5901,539.4814" style="stroke:#181818;stroke-width:1;"/><line style="stroke:#181818;stroke-width:1;" x1="970.4319" x2="970.4319" y1="416.2158" y2="451.2158"/><polygon fill="#181818" points="966.4319,441.2158,970.4319,451.2158,974.4319,441.2158,970.4319,445.2158" style="stroke:#181818;stroke-width:1;"/><line style="stroke:#181818;stroke-width:1;" x1="970.4319" x2="970.4319" y1="485.3486" y2="520.3486"/><polygon fill="#181818" points="966.4319,510.3486,970.4319,520.3486,974.4319,510.3486,970.4319,514.3486" style="stroke:#181818;stroke-width:1;"/><line style="stroke:#181818;stroke-width:1;" x1="970.4319" x2="970.4319" y1="554.4814" y2="587.4814"/><polygon fill="#181818" points="966.4319,577.4814,970.4319,587.4814,974.4319,577.4814,970.4319,581.4814" style="stroke:#181818;stroke-width:1;"/><line style="stroke:#181818;stroke-width:1;" x1="1167.6409" x2="1167.6409" y1="347.083" y2="382.083"/><polygon fill="#181818" points="1163.6409,372.083,1167.6409,382.083,1171.6409,372.083,1167.6409,376.083" style="stroke:#181818;stroke-width:1;"/><line style="stroke:#181818;stroke-width:1;" x1="1493.0078" x2="1375.7395" y1="236.9502" y2="236.9502"/><line style="stroke:#181818;stroke-width:1;" x1="1375.7395" x2="1375.7395" y1="236.9502" y2="268.9502"/><polygon fill="#181818" points="1371.7395,258.9502,1375.7395,268.9502,1379.7395,258.9502,1375.7395,262.9502" style="stroke:#181818;stroke-width:1;"/><line style="stroke:#181818;stroke-width:1;" x1="1845.3333" x2="1787.1851" y1="280.9502" y2="280.9502"/><line style="stroke:#181818;stroke-width:1;" x1="1787.1851" x2="1787.1851" y1="280.9502" y2="312.9502"/><polygon fill="#181818" points="1783.1851,302.9502,1787.1851,312.9502,1791.1851,302.9502,1787.1851,306.9502" style="stroke:#181818;stroke-width:1;"/><line style="stroke:#181818;stroke-width:1;" x1="123.4844" x2="123.4844" y1="259.083" y2="294.8271"/><line style="stroke:#181818;stroke-width:1;" x1="123.4844" x2="566.7271" y1="294.8271" y2="294.8271"/><line style="stroke:#181818;stroke-width:1;" x1="566.7271" x2="566.7271" y1="294.8271" y2="330.5713"/><polygon fill="#181818" points="562.7271,320.5713,566.7271,330.5713,570.7271,320.5713,566.7271,324.5713" style="stroke:#181818;stroke-width:1;"/><line style="stroke:#181818;stroke-width:1;" x1="1375.7395" x2="1375.7395" y1="303.083" y2="320.583"/><line style="stroke:#181818;stroke-width:1;" x1="1375.7395" x2="787.5901" y1="320.583" y2="320.583"/><line style="stroke:#181818;stroke-width:1;" x1="787.5901" x2="787.5901" y1="320.583" y2="338.083"/><polygon fill="#181818" points="783.5901,328.083,787.5901,338.083,791.5901,328.083,787.5901,332.083" style="stroke:#181818;stroke-width:1;"/><line style="stroke:#181818;stroke-width:1;" x1="1787.1851" x2="1787.1851" y1="347.083" y2="364.583"/><line style="stroke:#181818;stroke-width:1;" x1="1787.1851" x2="970.4319" y1="364.583" y2="364.583"/><line style="stroke:#181818;stroke-width:1;" x1="970.4319" x2="970.4319" y1="364.583" y2="382.083"/><polygon fill="#181818" points="966.4319,372.083,970.4319,382.083,974.4319,372.083,970.4319,376.083" style="stroke:#181818;stroke-width:1;"/><line style="stroke:#181818;stroke-width:1;" x1="1968.3494" x2="1980.3494" y1="280.9502" y2="280.9502"/><line style="stroke:#181818;stroke-width:1;" x1="1980.3494" x2="1980.3494" y1="280.9502" y2="298.9502"/><line style="stroke:#181818;stroke-width:1;" x1="1980.3494" x2="1167.6409" y1="298.9502" y2="298.9502"/><line style="stroke:#181818;stroke-width:1;" x1="1167.6409" x2="1167.6409" y1="298.9502" y2="312.9502"/><polygon fill="#181818" points="1163.6409,302.9502,1167.6409,312.9502,1171.6409,302.9502,1167.6409,306.9502" style="stroke:#181818;stroke-width:1;"/><line style="stroke:#181818;stroke-width:1;" x1="1623.9624" x2="1906.8413" y1="236.9502" y2="236.9502"/><line style="stroke:#181818;stroke-width:1;" x1="1906.8413" x2="1906.8413" y1="236.9502" y2="268.9502"/><polygon fill="#181818" points="1902.8413,258.9502,1906.8413,268.9502,1910.8413,258.9502,1906.8413,262.9502" style="stroke:#181818;stroke-width:1;"/><line style="stroke:#181818;stroke-width:1;" x1="368.7173" x2="1558.4851" y1="192.9502" y2="192.9502"/><line style="stroke:#181818;stroke-width:1;" x1="1558.4851" x2="1558.4851" y1="192.9502" y2="224.9502"/><polygon fill="#181818" points="1554.4851,214.9502,1558.4851,224.9502,1562.4851,214.9502,1558.4851,218.9502" style="stroke:#181818;stroke-width:1;"/><text fill="#000000" font-family="sans-serif" font-size="18" lengthAdjust="spacing" textLength="102.4541" x="183.5544" y="83.6758">Kh&#225;ch h&#224;ng</text><text fill="#000000" font-family="sans-serif" font-size="18" lengthAdjust="spacing" textLength="80.3057" x="823.3431" y="83.6758">H&#7879; th&#7889;ng</text><text fill="#000000" font-family="sans-serif" font-size="18" lengthAdjust="spacing" textLength="92.1533" x="1421.4681" y="83.6758">Ng&#432;&#7901;i b&#225;n</text><text fill="#000000" font-family="sans-serif" font-size="18" lengthAdjust="spacing" textLength="49.4736" x="1875.5238" y="83.6758">&#272;VVC</text><rect fill="#DDDDDD" height="59.4648" id="_legend" rx="7.5" ry="7.5" style="stroke:#000000;stroke-width:1;" width="329.5186" x="912.5948" y="909.1992"/><text fill="#000000" font-family="sans-serif" font-size="14" lengthAdjust="spacing" textLength="292.0449" x="917.5948" y="927.7344">Kh&#225;ch: ch&#7881; func_cancel_order() khi pending</text><text fill="#000000" font-family="sans-serif" font-size="14" lengthAdjust="spacing" textLength="276.3086" x="917.5948" y="944.2227">Seller / &#272;VVC: UPDATE tr&#7921;c ti&#7871;p qua app</text><text fill="#000000" font-family="sans-serif" font-size="14" lengthAdjust="spacing" textLength="319.5186" x="917.5948" y="960.7109">Ho&#224;n kho: trigger v&#7899;i m&#7885;i chuy&#7875;n -&gt; cancelled</text><!--SRC=[dLJFQzH05BxdhtZOWxi7iI28fAYiTTj2_L5ixMbXcIQpoR3994ucMnOZ23s81w55Ro9syU19KFJK73nawVyH_n9VPf9jTfjgzP9CCjzxyttVUs-kmeCuJzzo1zmy_Jo6wT7fX8ER7NF7C2IJ7hqOqEFR-ypt2AUH2PjkDh5SlG49REJfAv0OSgG-7pcdN_Fq0uEz3ACJc1xkxguQHZHaF2I2-12vn0xs6O87n8jeRQTZIJPYSdoFM4D7136tLmCl4B2qrbthhdQRa86mgIXHdLlBopTk6aPI9vWOaIH26cm0hOTnGRAkxcuRcLCEBIlxtZO02XJYPHp1RGWfjv7c8WR0NC_JDmm6CRVw5k4MzVgAHqiz-ynkhoXSKhScKR-GFbhD0WvNpeLVWUSAWmTiiZmzy44A0ejqLYhCqwtxdPqkF2v2enulSTVkWCxfKRk25gf2ClOfb_spT8JPvwMfp0jOJ2aeihNFCb8i7BHYNYIf0Wjw0xL-eLsImj72elw8UCmcafOfUxmKqq2t7YPe90DHH0NMiCTRdRMTxXCeXUjKfTLBMyIZwu9IRauFYxQT7cMVoah_UlaEt02R0OPkeE6OC3Gg6KCt-u5KIafQJZBNnhfsSyrX1Np0X4yRFJGtQWFKQgXCkpAoeKN-wDnA0sJEfGhmZuRCB9atfHAKg2bEQlqqCo9oMHWsZadDYL5-yeM3vSPZxEk_M7A1APUovHB6_8SrDNCgUspgiH4Lr8RhE1mMnG-zbB7Wr6xN3cDyQ6xg5Yia7PGdvUb7dE_yPAB-PnC6F3iUDnyvcwngfT-BbL8XUilmg8Chs0ka37pSqtUYYJN8qzSDLrSR1RDg1X2_NHH5e2HLURCQEcISVhD0ilpaPmZFOW8aB6XkL9wP266EWw6ZF7tFm5TNvQpozOeNL47pD7u3]--></g></svg>