<svg xmlns="http://www.w3.org/2000/svg" xmlns:xlink="http://www.w3.org/1999/xlink" contentStyleType="text/css" height="1786px" preserveAspectRatio="none" style="width:626px;height:1786px;background:#FFFFFF;" version="1.1" viewBox="0 0 626 1786" width="626px" zoomAndPan="magnify"><title>Lu&#7891;ng tr&#7843; h&#224;ng &amp; Ho&#224;n ti&#7873;n</title><defs/><g><text fill="#000000" font-family="sans-serif" font-size="14" font-weight="bold" lengthAdjust="spacing" textLength="199.2402" x="211.9056" y="33.5352">Lu&#7891;ng tr&#7843; h&#224;ng &amp; Ho&#224;n ti&#7873;n</text><text fill="#000000" font-family="sans-serif" font-size="14" font-weight="bold" lengthAdjust="spacing" textLength="249.4639" x="186.7938" y="50.0234">Swimlanes: Kh&#225;ch h&#224;ng | H&#7879; th&#7889;ng</text><rect fill="none" height="21.1992" style="stroke:none;stroke-width:1;" width="593.0515" x="15" y="66.2734"/><ellipse cx="107.1719" cy="102.4727" fill="#222222" rx="10" ry="10" style="stroke:#222222;stroke-width:1;"/><rect fill="#FEFECE" height="34.1328" rx="12.5" ry="12.5" style="stroke:#A80036;stroke-width:0.5;" width="162.9863" x="25.6787" y="180.9502"/><text fill="#000000" font-family="sans-serif" font-size="12" lengthAdjust="spacing" textLength="142.9863" x="35.6787" y="202.5518">Ch&#7885;n SP, s&#7889; l&#432;&#7907;ng, l&#253; do</text><rect fill="#FEFECE" height="34.1328" rx="12.5" ry="12.5" style="stroke:#A80036;stroke-width:0.5;" width="169.3555" x="22.4941" y="235.083"/><text fill="#000000" font-family="sans-serif" font-size="12" lengthAdjust="spacing" textLength="149.3555" x="32.4941" y="256.6846">G&#7885;i func_process_return()</text><polygon fill="#FEFECE" points="65.7903,132.4727,148.5535,132.4727,160.5535,144.4727,148.5535,156.4727,65.7903,156.4727,53.7903,144.4727,65.7903,132.4727" style="stroke:#A80036;stroke-width:0.5;"/><text fill="#000000" font-family="sans-serif" font-size="11" lengthAdjust="spacing" textLength="12.3911" x="111.1719" y="167.1074">c&#243;</text><text fill="#000000" font-family="sans-serif" font-size="11" lengthAdjust="spacing" textLength="82.7632" x="65.7903" y="148.6299">Mu&#7889;n tr&#7843; h&#224;ng?</text><text fill="#000000" font-family="sans-serif" font-size="11" lengthAdjust="spacing" textLength="33.6982" x="160.5535" y="142.1523">kh&#244;ng</text><ellipse cx="216.2517" cy="144.4727" fill="none" rx="11" ry="11" style="stroke:#222222;stroke-width:1;"/><ellipse cx="216.2517" cy="144.4727" fill="#222222" rx="6" ry="6" style="stroke:#222222;stroke-width:1;"/><rect fill="#FEFECE" height="34.1328" rx="12.5" ry="12.5" style="stroke:#A80036;stroke-width:0.5;" width="172.3438" x="21" y="1630.4941"/><text fill="#000000" font-family="sans-serif" font-size="12" lengthAdjust="spacing" textLength="152.3438" x="31" y="1652.0957">Nh&#7853;n th&#244;ng b&#225;o ho&#224;n ti&#7873;n</text><ellipse cx="107.1719" cy="1695.627" fill="none" rx="11" ry="11" style="stroke:#222222;stroke-width:1;"/><ellipse cx="107.1719" cy="1695.627" fill="#222222" rx="6" ry="6" style="stroke:#222222;stroke-width:1;"/><line style="stroke:#000000;stroke-width:1.5;" x1="15" x2="15" y1="66.2734" y2="1706.627"/><rect fill="none" height="728.6641" style="stroke:#000000;stroke-width:1.5;" width="231.1348" x="303.1726" y="279.6689"/><path d="M524.3074,279.6689 L524.3074,289.1572 L514.3074,299.1572 L303.1726,299.1572 " fill="none" style="stroke:#000000;stroke-width:1.5;"/><text fill="#000000" font-family="sans-serif" font-size="14" lengthAdjust="spacing" textLength="211.1348" x="306.1726" y="294.2041">func_process_return - ki&#7875;m tra</text><rect fill="#FFC0CB" height="34.1328" rx="12.5" ry="12.5" style="stroke:#A80036;stroke-width:0.5;" width="120.7754" x="352.3523" y="364.6348"/><text fill="#000000" font-family="sans-serif" font-size="12" lengthAdjust="spacing" textLength="100.7754" x="362.3523" y="386.2363">RAISE EXCEPTION</text><ellipse cx="412.74" cy="438.2012" fill="none" rx="11" ry="11" style="stroke:#222222;stroke-width:1;"/><ellipse cx="412.74" cy="438.2012" fill="#222222" rx="6" ry="6" style="stroke:#222222;stroke-width:1;"/><polygon fill="#FEFECE" points="357.9871,316.1572,467.4929,316.1572,479.4929,328.1572,467.4929,340.1572,357.9871,340.1572,345.9871,328.1572,357.9871,316.1572" style="stroke:#A80036;stroke-width:0.5;"/><text fill="#000000" font-family="sans-serif" font-size="11" lengthAdjust="spacing" textLength="33.6982" x="416.74" y="350.792">kh&#244;ng</text><text fill="#000000" font-family="sans-serif" font-size="11" lengthAdjust="spacing" textLength="109.5059" x="357.9871" y="332.3145">return_quantity &gt; 0?</text><rect fill="#FFC0CB" height="34.1328" rx="12.5" ry="12.5" style="stroke:#A80036;stroke-width:0.5;" width="147.3887" x="339.0457" y="539.6787"/><text fill="#000000" font-family="sans-serif" font-size="12" lengthAdjust="spacing" textLength="127.3887" x="349.0457" y="561.2803">&#272;&#417;n &#273;&#227; kh&#243;a tr&#7843; h&#224;ng</text><ellipse cx="412.74" cy="613.2451" fill="none" rx="11" ry="11" style="stroke:#222222;stroke-width:1;"/><ellipse cx="412.74" cy="613.2451" fill="#222222" rx="6" ry="6" style="stroke:#222222;stroke-width:1;"/><polygon fill="#FEFECE" points="360.353,491.2012,465.127,491.2012,477.127,503.2012,465.127,515.2012,360.353,515.2012,348.353,503.2012,360.353,491.2012" style="stroke:#A80036;stroke-width:0.5;"/><text fill="#000000" font-family="sans-serif" font-size="11" lengthAdjust="spacing" textLength="33.6982" x="416.74" y="525.8359">kh&#244;ng</text><text fill="#000000" font-family="sans-serif" font-size="11" lengthAdjust="spacing" textLength="104.7739" x="360.353" y="507.3584">can_return = TRUE?</text><rect fill="#FFC0CB" height="34.1328" rx="12.5" ry="12.5" style="stroke:#A80036;stroke-width:0.5;" width="146.457" x="339.5115" y="714.7227"/><text fill="#000000" font-family="sans-serif" font-size="12" lengthAdjust="spacing" textLength="126.457" x="349.5115" y="736.3242">Ch&#432;a &#273;&#7911; &#273;i&#7873;u ki&#7879;n tr&#7843;</text><ellipse cx="412.74" cy="788.2891" fill="none" rx="11" ry="11" style="stroke:#222222;stroke-width:1;"/><ellipse cx="412.74" cy="788.2891" fill="#222222" rx="6" ry="6" style="stroke:#222222;stroke-width:1;"/><polygon fill="#FEFECE" points="375.5264,666.2451,449.9536,666.2451,461.9536,678.2451,449.9536,690.2451,375.5264,690.2451,363.5264,678.2451,375.5264,666.2451" style="stroke:#A80036;stroke-width:0.5;"/><text fill="#000000" font-family="sans-serif" font-size="11" lengthAdjust="spacing" textLength="33.6982" x="416.74" y="700.8799">kh&#244;ng</text><text fill="#000000" font-family="sans-serif" font-size="11" lengthAdjust="spacing" textLength="74.4272" x="375.5264" y="682.4023">status h&#7907;p l&#7879;?</text><rect fill="#FFC0CB" height="34.1328" rx="12.5" ry="12.5" style="stroke:#A80036;stroke-width:0.5;" width="138.5762" x="343.4519" y="889.7666"/><text fill="#000000" font-family="sans-serif" font-size="12" lengthAdjust="spacing" textLength="118.5762" x="353.4519" y="911.3682">Kh&#244;ng th&#7875; ho&#224;n ti&#7873;n</text><ellipse cx="412.74" cy="963.333" fill="none" rx="11" ry="11" style="stroke:#222222;stroke-width:1;"/><ellipse cx="412.74" cy="963.333" fill="#222222" rx="6" ry="6" style="stroke:#222222;stroke-width:1;"/><polygon fill="#FEFECE" points="368.6567,841.2891,456.8232,841.2891,468.8232,853.2891,456.8232,865.2891,368.6567,865.2891,356.6567,853.2891,368.6567,841.2891" style="stroke:#A80036;stroke-width:0.5;"/><text fill="#000000" font-family="sans-serif" font-size="11" lengthAdjust="spacing" textLength="33.6982" x="416.74" y="875.9238">kh&#244;ng</text><text fill="#000000" font-family="sans-serif" font-size="11" lengthAdjust="spacing" textLength="88.1665" x="368.6567" y="857.4463">payment h&#7907;p l&#7879;?</text><rect fill="#FEFECE" height="34.1328" rx="12.5" ry="12.5" style="stroke:#A80036;stroke-width:0.5;" width="270.5762" x="277.4519" y="1028.333"/><text fill="#000000" font-family="sans-serif" font-size="12" lengthAdjust="spacing" textLength="250.5762" x="287.4519" y="1049.9346">T&#237;nh item_refund = price x return_quantity</text><rect fill="#FEFECE" height="34.1328" rx="12.5" ry="12.5" style="stroke:#A80036;stroke-width:0.5;" width="234.9102" x="295.2849" y="1082.4658"/><text fill="#000000" font-family="sans-serif" font-size="12" lengthAdjust="spacing" textLength="214.9102" x="305.2849" y="1104.0674">UPDATE Order_Items return_quantity</text><rect fill="none" height="165.0195" style="stroke:#000000;stroke-width:1.5;" width="225.291" x="300.0945" y="1126.5986"/><path d="M454.4968,1126.5986 L454.4968,1136.0869 L444.4968,1146.0869 L300.0945,1146.0869 " fill="none" style="stroke:#000000;stroke-width:1.5;"/><text fill="#000000" font-family="sans-serif" font-size="14" lengthAdjust="spacing" textLength="144.4023" x="303.0945" y="1141.1338">Triggers Order_Items</text><rect fill="#FEFECE" height="48.2656" rx="12.5" ry="12.5" style="stroke:#A80036;stroke-width:0.5;" width="205.291" x="310.0945" y="1163.0869"/><text fill="#000000" font-family="sans-serif" font-size="12" lengthAdjust="spacing" textLength="185.291" x="320.0945" y="1184.6885">trg_order_items_validate_return</text><text fill="#000000" font-family="sans-serif" font-size="12" lengthAdjust="spacing" textLength="51.0586" x="320.0945" y="1198.8213">(BEFORE)</text><rect fill="#FEFECE" height="48.2656" rx="12.5" ry="12.5" style="stroke:#A80036;stroke-width:0.5;" width="196.5781" x="314.4509" y="1231.3525"/><text fill="#000000" font-family="sans-serif" font-size="12" lengthAdjust="spacing" textLength="176.5781" x="324.4509" y="1252.9541">trg_order_items_restore_stock</text><text fill="#000000" font-family="sans-serif" font-size="12" lengthAdjust="spacing" textLength="113.2559" x="324.4509" y="1267.0869">(AFTER - ho&#224;n kho)</text><polygon fill="#FEFECE" points="371.7935,1311.6182,453.6865,1311.6182,465.6865,1323.6182,453.6865,1335.6182,371.7935,1335.6182,359.7935,1323.6182,371.7935,1311.6182" style="stroke:#A80036;stroke-width:0.5;"/><text fill="#000000" font-family="sans-serif" font-size="11" lengthAdjust="spacing" textLength="81.8931" x="371.7935" y="1327.7754">Tr&#7843; h&#7871;t m&#7885;i SP?</text><text fill="#000000" font-family="sans-serif" font-size="11" lengthAdjust="spacing" textLength="12.3911" x="347.4023" y="1321.2979">c&#243;</text><text fill="#000000" font-family="sans-serif" font-size="11" lengthAdjust="spacing" textLength="51.2725" x="465.6865" y="1321.2979">m&#7897;t ph&#7847;n</text><rect fill="#FEFECE" height="34.1328" rx="12.5" ry="12.5" style="stroke:#A80036;stroke-width:0.5;" width="162.002" x="237.2517" y="1345.6182"/><text fill="#000000" font-family="sans-serif" font-size="12" lengthAdjust="spacing" textLength="142.002" x="247.2517" y="1367.2197">Ho&#224;n th&#234;m shipping_fee</text><rect fill="#FEFECE" height="48.2656" rx="12.5" ry="12.5" style="stroke:#A80036;stroke-width:0.5;" width="147.043" x="244.7312" y="1399.751"/><text fill="#000000" font-family="sans-serif" font-size="12" lengthAdjust="spacing" textLength="109.4883" x="254.7312" y="1421.3525">status -&gt; returned</text><text fill="#000000" font-family="sans-serif" font-size="12" lengthAdjust="spacing" textLength="127.043" x="254.7312" y="1435.4854">payment -&gt; refunded</text><rect fill="#FEFECE" height="34.1328" rx="12.5" ry="12.5" style="stroke:#A80036;stroke-width:0.5;" width="175.9473" x="419.2537" y="1345.6182"/><text fill="#000000" font-family="sans-serif" font-size="12" lengthAdjust="spacing" textLength="155.9473" x="429.2537" y="1367.2197">payment -&gt; partial_refund</text><rect fill="#FEFECE" height="34.1328" rx="12.5" ry="12.5" style="stroke:#A80036;stroke-width:0.5;" width="139.9531" x="437.2507" y="1448.2285"/><text fill="#000000" font-family="sans-serif" font-size="12" lengthAdjust="spacing" textLength="119.9531" x="447.2507" y="1469.8301">refunded + returned</text><polygon fill="#FEFECE" points="454.6228,1399.751,559.8318,1399.751,571.8318,1411.751,559.8318,1423.751,454.6228,1423.751,442.6228,1411.751,454.6228,1399.751" style="stroke:#A80036;stroke-width:0.5;"/><text fill="#000000" font-family="sans-serif" font-size="11" lengthAdjust="spacing" textLength="12.3911" x="511.2273" y="1434.3857">c&#243;</text><text fill="#000000" font-family="sans-serif" font-size="11" lengthAdjust="spacing" textLength="105.209" x="454.6228" y="1415.9082">refund &gt;= amount?</text><polygon fill="#FEFECE" points="507.2273,1502.3613,519.2273,1514.3613,507.2273,1526.3613,495.2273,1514.3613,507.2273,1502.3613" style="stroke:#A80036;stroke-width:0.5;"/><polygon fill="#FEFECE" points="412.74,1532.3613,424.74,1544.3613,412.74,1556.3613,400.74,1544.3613,412.74,1532.3613" style="stroke:#A80036;stroke-width:0.5;"/><rect fill="#FEFECE" height="34.1328" rx="12.5" ry="12.5" style="stroke:#A80036;stroke-width:0.5;" width="172.8418" x="326.3191" y="1576.3613"/><text fill="#000000" font-family="sans-serif" font-size="12" lengthAdjust="spacing" textLength="152.8418" x="336.3191" y="1597.9629">trg_orders_validate_status</text><line style="stroke:#000000;stroke-width:1.5;" x1="231.2517" x2="231.2517" y1="66.2734" y2="1706.627"/><line style="stroke:#000000;stroke-width:1.5;" x1="606.2039" x2="606.2039" y1="66.2734" y2="1706.627"/><line style="stroke:#181818;stroke-width:1;" x1="107.1719" x2="107.1719" y1="215.083" y2="235.083"/><polygon fill="#181818" points="103.1719,225.083,107.1719,235.083,111.1719,225.083,107.1719,229.083" style="stroke:#181818;stroke-width:1;"/><line style="stroke:#181818;stroke-width:1;" x1="107.1719" x2="107.1719" y1="156.4727" y2="180.9502"/><polygon fill="#181818" points="103.1719,170.9502,107.1719,180.9502,111.1719,170.9502,107.1719,174.9502" style="stroke:#181818;stroke-width:1;"/><line style="stroke:#181818;stroke-width:1;" x1="160.5535" x2="205.2517" y1="144.4727" y2="144.4727"/><polygon fill="#181818" points="195.2517,140.4727,205.2517,144.4727,195.2517,148.4727,199.2517,144.4727" style="stroke:#181818;stroke-width:1;"/><line style="stroke:#181818;stroke-width:1;" x1="107.1719" x2="107.1719" y1="269.2158" y2="280.4131"/><line style="stroke:#181818;stroke-width:1;" x1="107.1719" x2="412.74" y1="280.4131" y2="280.4131"/><line style="stroke:#181818;stroke-width:1;" x1="412.74" x2="412.74" y1="280.4131" y2="316.1572"/><polygon fill="#181818" points="408.74,306.1572,412.74,316.1572,416.74,306.1572,412.74,310.1572" style="stroke:#181818;stroke-width:1;"/><line style="stroke:#181818;stroke-width:1;" x1="107.1719" x2="107.1719" y1="112.4727" y2="132.4727"/><polygon fill="#181818" points="103.1719,122.4727,107.1719,132.4727,111.1719,122.4727,107.1719,126.4727" style="stroke:#181818;stroke-width:1;"/><line style="stroke:#181818;stroke-width:1;" x1="107.1719" x2="107.1719" y1="1664.627" y2="1684.627"/><polygon fill="#181818" points="103.1719,1674.627,107.1719,1684.627,111.1719,1674.627,107.1719,1678.627" style="stroke:#181818;stroke-width:1;"/><line style="stroke:#181818;stroke-width:1;" x1="412.74" x2="412.74" y1="398.7676" y2="427.2012"/><polygon fill="#181818" points="408.74,417.2012,412.74,427.2012,416.74,417.2012,412.74,421.2012" style="stroke:#181818;stroke-width:1;"/><line style="stroke:#181818;stroke-width:1;" x1="412.74" x2="412.74" y1="340.1572" y2="364.6348"/><polygon fill="#181818" points="408.74,354.6348,412.74,364.6348,416.74,354.6348,412.74,358.6348" style="stroke:#181818;stroke-width:1;"/><line style="stroke:#181818;stroke-width:1;" x1="479.4929" x2="491.4929" y1="328.1572" y2="328.1572"/><polygon fill="#181818" points="487.4929,397.2012,491.4929,407.2012,495.4929,397.2012,491.4929,401.2012" style="stroke:#181818;stroke-width:1;"/><line style="stroke:#181818;stroke-width:1;" x1="491.4929" x2="491.4929" y1="328.1572" y2="471.2012"/><line style="stroke:#181818;stroke-width:1;" x1="491.4929" x2="412.74" y1="471.2012" y2="471.2012"/><line style="stroke:#181818;stroke-width:1;" x1="412.74" x2="412.74" y1="471.2012" y2="491.2012"/><polygon fill="#181818" points="408.74,481.2012,412.74,491.2012,416.74,481.2012,412.74,485.2012" style="stroke:#181818;stroke-width:1;"/><line style="stroke:#181818;stroke-width:1;" x1="412.74" x2="412.74" y1="573.8115" y2="602.2451"/><polygon fill="#181818" points="408.74,592.2451,412.74,602.2451,416.74,592.2451,412.74,596.2451" style="stroke:#181818;stroke-width:1;"/><line style="stroke:#181818;stroke-width:1;" x1="412.74" x2="412.74" y1="515.2012" y2="539.6787"/><polygon fill="#181818" points="408.74,529.6787,412.74,539.6787,416.74,529.6787,412.74,533.6787" style="stroke:#181818;stroke-width:1;"/><line style="stroke:#181818;stroke-width:1;" x1="477.127" x2="496.4343" y1="503.2012" y2="503.2012"/><polygon fill="#181818" points="492.4343,572.2451,496.4343,582.2451,500.4343,572.2451,496.4343,576.2451" style="stroke:#181818;stroke-width:1;"/><line style="stroke:#181818;stroke-width:1;" x1="496.4343" x2="496.4343" y1="503.2012" y2="646.2451"/><line style="stroke:#181818;stroke-width:1;" x1="496.4343" x2="412.74" y1="646.2451" y2="646.2451"/><line style="stroke:#181818;stroke-width:1;" x1="412.74" x2="412.74" y1="646.2451" y2="666.2451"/><polygon fill="#181818" points="408.74,656.2451,412.74,666.2451,416.74,656.2451,412.74,660.2451" style="stroke:#181818;stroke-width:1;"/><line style="stroke:#181818;stroke-width:1;" x1="412.74" x2="412.74" y1="748.8555" y2="777.2891"/><polygon fill="#181818" points="408.74,767.2891,412.74,777.2891,416.74,767.2891,412.74,771.2891" style="stroke:#181818;stroke-width:1;"/><line style="stroke:#181818;stroke-width:1;" x1="412.74" x2="412.74" y1="690.2451" y2="714.7227"/><polygon fill="#181818" points="408.74,704.7227,412.74,714.7227,416.74,704.7227,412.74,708.7227" style="stroke:#181818;stroke-width:1;"/><line style="stroke:#181818;stroke-width:1;" x1="461.9536" x2="495.9685" y1="678.2451" y2="678.2451"/><polygon fill="#181818" points="491.9685,747.2891,495.9685,757.2891,499.9685,747.2891,495.9685,751.2891" style="stroke:#181818;stroke-width:1;"/><line style="stroke:#181818;stroke-width:1;" x1="495.9685" x2="495.9685" y1="678.2451" y2="821.2891"/><line style="stroke:#181818;stroke-width:1;" x1="495.9685" x2="412.74" y1="821.2891" y2="821.2891"/><line style="stroke:#181818;stroke-width:1;" x1="412.74" x2="412.74" y1="821.2891" y2="841.2891"/><polygon fill="#181818" points="408.74,831.2891,412.74,841.2891,416.74,831.2891,412.74,835.2891" style="stroke:#181818;stroke-width:1;"/><line style="stroke:#181818;stroke-width:1;" x1="412.74" x2="412.74" y1="923.8994" y2="952.333"/><polygon fill="#181818" points="408.74,942.333,412.74,952.333,416.74,942.333,412.74,946.333" style="stroke:#181818;stroke-width:1;"/><line style="stroke:#181818;stroke-width:1;" x1="412.74" x2="412.74" y1="865.2891" y2="889.7666"/><polygon fill="#181818" points="408.74,879.7666,412.74,889.7666,416.74,879.7666,412.74,883.7666" style="stroke:#181818;stroke-width:1;"/><line style="stroke:#181818;stroke-width:1;" x1="468.8232" x2="492.0281" y1="853.2891" y2="853.2891"/><polygon fill="#181818" points="488.0281,922.333,492.0281,932.333,496.0281,922.333,492.0281,926.333" style="stroke:#181818;stroke-width:1;"/><line style="stroke:#181818;stroke-width:1;" x1="492.0281" x2="492.0281" y1="853.2891" y2="996.333"/><line style="stroke:#181818;stroke-width:1;" x1="492.0281" x2="412.74" y1="996.333" y2="996.333"/><line style="stroke:#181818;stroke-width:1;" x1="412.74" x2="412.74" y1="996.333" y2="1028.333"/><polygon fill="#181818" points="408.74,1018.333,412.74,1028.333,416.74,1018.333,412.74,1022.333" style="stroke:#181818;stroke-width:1;"/><line style="stroke:#181818;stroke-width:1;" x1="412.74" x2="412.74" y1="1062.4658" y2="1082.4658"/><polygon fill="#181818" points="408.74,1072.4658,412.74,1082.4658,416.74,1072.4658,412.74,1076.4658" style="stroke:#181818;stroke-width:1;"/><line style="stroke:#181818;stroke-width:1;" x1="412.74" x2="412.74" y1="1211.3525" y2="1231.3525"/><polygon fill="#181818" points="408.74,1221.3525,412.74,1231.3525,416.74,1221.3525,412.74,1225.3525" style="stroke:#181818;stroke-width:1;"/><line style="stroke:#181818;stroke-width:1;" x1="412.74" x2="412.74" y1="1116.5986" y2="1163.0869"/><polygon fill="#181818" points="408.74,1153.0869,412.74,1163.0869,416.74,1153.0869,412.74,1157.0869" style="stroke:#181818;stroke-width:1;"/><line style="stroke:#181818;stroke-width:1;" x1="318.2527" x2="318.2527" y1="1379.751" y2="1399.751"/><polygon fill="#181818" points="314.2527,1389.751,318.2527,1399.751,322.2527,1389.751,318.2527,1393.751" style="stroke:#181818;stroke-width:1;"/><line style="stroke:#181818;stroke-width:1;" x1="507.2273" x2="507.2273" y1="1423.751" y2="1448.2285"/><polygon fill="#181818" points="503.2273,1438.2285,507.2273,1448.2285,511.2273,1438.2285,507.2273,1442.2285" style="stroke:#181818;stroke-width:1;"/><line style="stroke:#181818;stroke-width:1;" x1="571.8318" x2="587.2039" y1="1411.751" y2="1411.751"/><polygon fill="#181818" points="583.2039,1455.2949,587.2039,1465.2949,591.2039,1455.2949,587.2039,1459.2949" style="stroke:#181818;stroke-width:1;"/><line style="stroke:#181818;stroke-width:1;" x1="587.2039" x2="587.2039" y1="1411.751" y2="1514.3613"/><line style="stroke:#181818;stroke-width:1;" x1="587.2039" x2="519.2273" y1="1514.3613" y2="1514.3613"/><polygon fill="#181818" points="529.2273,1510.3613,519.2273,1514.3613,529.2273,1518.3613,525.2273,1514.3613" style="stroke:#181818;stroke-width:1;"/><line style="stroke:#181818;stroke-width:1;" x1="507.2273" x2="507.2273" y1="1482.3613" y2="1502.3613"/><polygon fill="#181818" points="503.2273,1492.3613,507.2273,1502.3613,511.2273,1492.3613,507.2273,1496.3613" style="stroke:#181818;stroke-width:1;"/><line style="stroke:#181818;stroke-width:1;" x1="507.2273" x2="507.2273" y1="1379.751" y2="1399.751"/><polygon fill="#181818" points="503.2273,1389.751,507.2273,1399.751,511.2273,1389.751,507.2273,1393.751" style="stroke:#181818;stroke-width:1;"/><line style="stroke:#181818;stroke-width:1;" x1="359.7935" x2="318.2527" y1="1323.6182" y2="1323.6182"/><line style="stroke:#181818;stroke-width:1;" x1="318.2527" x2="318.2527" y1="1323.6182" y2="1345.6182"/><polygon fill="#181818" points="314.2527,1335.6182,318.2527,1345.6182,322.2527,1335.6182,318.2527,1339.6182" style="stroke:#181818;stroke-width:1;"/><line style="stroke:#181818;stroke-width:1;" x1="465.6865" x2="507.2273" y1="1323.6182" y2="1323.6182"/><line style="stroke:#181818;stroke-width:1;" x1="507.2273" x2="507.2273" y1="1323.6182" y2="1345.6182"/><polygon fill="#181818" points="503.2273,1335.6182,507.2273,1345.6182,511.2273,1335.6182,507.2273,1339.6182" style="stroke:#181818;stroke-width:1;"/><line style="stroke:#181818;stroke-width:1;" x1="318.2527" x2="318.2527" y1="1448.0166" y2="1544.3613"/><line style="stroke:#181818;stroke-width:1;" x1="318.2527" x2="400.74" y1="1544.3613" y2="1544.3613"/><polygon fill="#181818" points="390.74,1540.3613,400.74,1544.3613,390.74,1548.3613,394.74,1544.3613" style="stroke:#181818;stroke-width:1;"/><line style="stroke:#181818;stroke-width:1;" x1="507.2273" x2="507.2273" y1="1526.3613" y2="1544.3613"/><line style="stroke:#181818;stroke-width:1;" x1="507.2273" x2="424.74" y1="1544.3613" y2="1544.3613"/><polygon fill="#181818" points="434.74,1540.3613,424.74,1544.3613,434.74,1548.3613,430.74,1544.3613" style="stroke:#181818;stroke-width:1;"/><line style="stroke:#181818;stroke-width:1;" x1="412.74" x2="412.74" y1="1279.6182" y2="1311.6182"/><polygon fill="#181818" points="408.74,1301.6182,412.74,1311.6182,416.74,1301.6182,412.74,1305.6182" style="stroke:#181818;stroke-width:1;"/><line style="stroke:#181818;stroke-width:1;" x1="412.74" x2="412.74" y1="1556.3613" y2="1576.3613"/><polygon fill="#181818" points="408.74,1566.3613,412.74,1576.3613,416.74,1566.3613,412.74,1570.3613" style="stroke:#181818;stroke-width:1;"/><line style="stroke:#181818;stroke-width:1;" x1="412.74" x2="412.74" y1="1610.4941" y2="1615.4941"/><line style="stroke:#181818;stroke-width:1;" x1="412.74" x2="107.1719" y1="1615.4941" y2="1615.4941"/><line style="stroke:#181818;stroke-width:1;" x1="107.1719" x2="107.1719" y1="1615.4941" y2="1630.4941"/><polygon fill="#181818" points="103.1719,1620.4941,107.1719,1630.4941,111.1719,1620.4941,107.1719,1624.4941" style="stroke:#181818;stroke-width:1;"/><text fill="#000000" font-family="sans-serif" font-size="18" lengthAdjust="spacing" textLength="102.4541" x="71.8988" y="83.6758">Kh&#225;ch h&#224;ng</text><text fill="#000000" font-family="sans-serif" font-size="18" lengthAdjust="spacing" textLength="80.3057" x="378.575" y="83.6758">H&#7879; th&#7889;ng</text><rect fill="#DDDDDD" height="42.9766" id="_legend" rx="7.5" ry="7.5" style="stroke:#000000;stroke-width:1;" width="359.8906" x="131.5804" y="1718.627"/><text fill="#000000" font-family="sans-serif" font-size="14" lengthAdjust="spacing" textLength="310.3857" x="136.5804" y="1737.1621">can_return TRUE: sau func_confirm_received()</text><text fill="#000000" font-family="sans-serif" font-size="14" lengthAdjust="spacing" textLength="349.8906" x="136.5804" y="1753.6504">can_return FALSE: sau func_auto_complete_orders()</text><!--SRC=[ZLHDIznG5Ds_Nt5HQ6UeWb0e9K7BECrKiTLXPeGkXF1CtYIFILxIbnUjTBeeBbmLAbrrLvc5K104kt8eNKJy7_adlVcOCUeetOIGTzuzvvvxRfx2spWTVnSEA9bUZi1DVkBx4t03V075q_4NGOZYocCF8DSgo1tHtUU-HmMBDDXmanFBBN53M4l7Hw3ST7mi74AY0HSXbTI7oALsiCyHqwTUn2ed3KlnFQuELgarS6GG2xiPU864-PRHCfh6B6GWRIPBLEFbqjBp5uGCgqA6959KAiBxK7iNPsAgxRogeq8ce6Ob5tK2e3LHxrS1tVO2H0W6x_ey7O-4im1UyWViGCz0Rn33eHyBomnbOB4eCYLJiHIrkauOzWIrWPly5avMCb91I9YmUH-LLJqP4km5ZUQ1WBaPnM0H1cZoeO-2wHnymbfP4yMX-I6c0YyVm0eiJRkuOGMORtCnq3gDzQu1nlkcqUwjRstg-L4k2Q0GLLIrg9ZGBaElisqyKlFgs_M9WAlZP0HuU46hXZv8W5DGSGJO-YW43sruXA3fNfzJ94Z7f_ZCWXRdLXoLitkG9AG7FXFg_rWsyY_vD0vlnNz6-S-4QBtaJBZ05VFHAPoNZKw5abiCFiATeUX4ssw_RlGCsChoQQxZfUW-g1g0dkIEmsHKlL4CNLFICVEScnbvPEvHZzjKiN9WEwAsQhIsEaPTduMM33kHpCIdDK1iezKpEfYjekE16-0rR2-phrVCCRtygy3FCzvjtzkGSltTv5UsoZmCSPFDFcCvUJdbnPMoMMRlYCbGye-PRyoUR0cI_50G8kEfo8jNiBatr2kzrgVfpvrVMGRgumz2tPM7DIOay6mgGfyEibp46vSgTXRYzNi_46qJ1PxbFMU1sKrEWZjvoRD2FEPWUTWDb0fyPApiLBPH6aGqBluQLY3wN6OviXZVOtQjVXlUQhpjLl4qLW5UyaEFeSv2Dzx9s0fIyWy0]--></g></svg>