<svg xmlns="http://www.w3.org/2000/svg" xmlns:xlink="http://www.w3.org/1999/xlink" contentStyleType="text/css" height="2409px" preserveAspectRatio="none" style="width:1853px;height:2409px;background:#FFFFFF;" version="1.1" viewBox="0 0 1853 2409" width="1853px" zoomAndPan="magnify"><title>Lu&#7891;ng ch&#237;nh &#8212; &#272;&#7863;t h&#224;ng, Thanh to&#225;n, Giao h&#224;ng, X&#225;c nh&#7853;n nh&#7853;n</title><defs/><g><text fill="#000000" font-family="sans-serif" font-size="14" font-weight="bold" lengthAdjust="spacing" textLength="462.4648" x="693.8226" y="33.5352">Lu&#7891;ng ch&#237;nh &#8212; &#272;&#7863;t h&#224;ng, Thanh to&#225;n, Giao h&#224;ng, X&#225;c nh&#7853;n nh&#7853;n</text><text fill="#000000" font-family="sans-serif" font-size="14" font-weight="bold" lengthAdjust="spacing" textLength="395.6436" x="727.2333" y="50.0234">Swimlanes: Kh&#225;ch h&#224;ng | H&#7879; th&#7889;ng | Ng&#432;&#7901;i b&#225;n | &#272;VVC</text><rect fill="none" height="21.1992" style="stroke:none;stroke-width:1;" width="1820.1101" x="15" y="66.2734"/><ellipse cx="303.8267" cy="102.4727" fill="#222222" rx="10" ry="10" style="stroke:#222222;stroke-width:1;"/><rect fill="#FEFECE" height="48.2656" rx="12.5" ry="12.5" style="stroke:#A80036;stroke-width:0.5;" width="192.4648" x="207.5942" y="132.4727"/><text fill="#000000" font-family="sans-serif" font-size="12" lengthAdjust="spacing" textLength="172.4648" x="217.5942" y="154.0742">Th&#234;m s&#7843;n ph&#7849;m v&#224;o gi&#7887; h&#224;ng</text><text fill="#000000" font-family="sans-serif" font-size="12" lengthAdjust="spacing" textLength="114.4277" x="217.5942" y="168.207">(Carts / Cart_items)</text><rect fill="#FEFECE" height="48.2656" rx="12.5" ry="12.5" style="stroke:#A80036;stroke-width:0.5;" width="154.6719" x="226.4907" y="200.7383"/><text fill="#000000" font-family="sans-serif" font-size="12" lengthAdjust="spacing" textLength="110.0742" x="236.4907" y="222.3398">Ch&#7885;n seller, &#272;VVC,</text><text fill="#000000" font-family="sans-serif" font-size="12" lengthAdjust="spacing" textLength="134.6719" x="236.4907" y="236.4727">ph&#237; ship, ghi ch&#250;, PTTT</text><rect fill="#FEFECE" height="34.1328" rx="12.5" ry="12.5" style="stroke:#A80036;stroke-width:0.5;" width="143.7207" x="231.9663" y="269.0039"/><text fill="#000000" font-family="sans-serif" font-size="12" lengthAdjust="spacing" textLength="123.7207" x="241.9663" y="290.6055">G&#7917;i y&#234;u c&#7847;u &#273;&#7863;t h&#224;ng</text><rect fill="#FEFECE" height="48.2656" rx="12.5" ry="12.5" style="stroke:#A80036;stroke-width:0.5;" width="281.3867" x="163.1333" y="864.1953"/><text fill="#000000" font-family="sans-serif" font-size="12" lengthAdjust="spacing" textLength="66.2871" x="173.1333" y="885.7969">Thanh to&#225;n</text><text fill="#000000" font-family="sans-serif" font-size="12" lengthAdjust="spacing" textLength="261.3867" x="173.1333" y="899.9297">(MoMo / VNPay / th&#7867; / chuy&#7875;n kho&#7843;n / COD)</text><polygon fill="#FEFECE" points="236.4543,1707.5518,371.199,1707.5518,383.199,1720.5068,371.199,1733.4619,236.4543,1733.4619,224.4543,1720.5068,236.4543,1707.5518" style="stroke:#A80036;stroke-width:0.5;"/><text fill="#000000" font-family="sans-serif" font-size="11" lengthAdjust="spacing" textLength="134.7446" x="236.4543" y="1718.1865">X&#225;c nh&#7853;n "&#272;&#227; nh&#7853;n h&#224;ng"</text><text fill="#000000" font-family="sans-serif" font-size="11" lengthAdjust="spacing" textLength="102.7383" x="236.4543" y="1731.1416">trong v&#242;ng 3 ng&#224;y?</text><text fill="#000000" font-family="sans-serif" font-size="11" lengthAdjust="spacing" textLength="12.3911" x="212.0632" y="1718.1865">c&#243;</text><text fill="#000000" font-family="sans-serif" font-size="11" lengthAdjust="spacing" textLength="110.9077" x="383.199" y="1718.1865">kh&#244;ng &#8212; qu&#225; 3 ng&#224;y</text><rect fill="#FEFECE" height="34.1328" rx="12.5" ry="12.5" style="stroke:#A80036;stroke-width:0.5;" width="280.0977" x="21" y="1753.4619"/><text fill="#000000" font-family="sans-serif" font-size="12" lengthAdjust="spacing" textLength="260.0977" x="31" y="1775.0635">G&#7885;i func_confirm_received(order_id, user_id)</text><polygon fill="#FEFECE" points="303.8267,2170.3877,315.8267,2182.3877,303.8267,2194.3877,291.8267,2182.3877,303.8267,2170.3877" style="stroke:#A80036;stroke-width:0.5;"/><rect fill="#FEFECE" height="48.2656" rx="12.5" ry="12.5" style="stroke:#A80036;stroke-width:0.5;" width="137.3574" x="235.1479" y="2262.8652"/><text fill="#000000" font-family="sans-serif" font-size="12" lengthAdjust="spacing" textLength="112.5" x="245.1479" y="2284.4668">&#272;&#225;nh gi&#225; s&#7843;n ph&#7849;m</text><text fill="#000000" font-family="sans-serif" font-size="12" lengthAdjust="spacing" textLength="117.3574" x="245.1479" y="2298.5996">(Order_Items.rating)</text><polygon fill="#FEFECE" points="257.4795,2214.3877,350.1738,2214.3877,362.1738,2226.3877,350.1738,2238.3877,257.4795,2238.3877,245.4795,2226.3877,257.4795,2214.3877" style="stroke:#A80036;stroke-width:0.5;"/><text fill="#000000" font-family="sans-serif" font-size="11" lengthAdjust="spacing" textLength="12.3911" x="307.8267" y="2249.0225">c&#243;</text><text fill="#000000" font-family="sans-serif" font-size="11" lengthAdjust="spacing" textLength="92.6943" x="257.4795" y="2230.5449">can_rate = TRUE?</text><text fill="#000000" font-family="sans-serif" font-size="11" lengthAdjust="spacing" textLength="33.6982" x="362.1738" y="2224.0674">kh&#244;ng</text><polygon fill="#FEFECE" points="303.8267,2331.1309,315.8267,2343.1309,303.8267,2355.1309,291.8267,2343.1309,303.8267,2331.1309" style="stroke:#A80036;stroke-width:0.5;"/><ellipse cx="303.8267" cy="2386.1309" fill="none" rx="11" ry="11" style="stroke:#222222;stroke-width:1;"/><ellipse cx="303.8267" cy="2386.1309" fill="#222222" rx="6" ry="6" style="stroke:#222222;stroke-width:1;"/><line style="stroke:#000000;stroke-width:1.5;" x1="15" x2="15" y1="66.2734" y2="2397.1309"/><rect fill="#FEFECE" height="34.1328" rx="12.5" ry="12.5" style="stroke:#A80036;stroke-width:0.5;" width="127.168" x="701.3318" y="323.1367"/><text fill="#000000" font-family="sans-serif" font-size="12" lengthAdjust="spacing" textLength="107.168" x="711.3318" y="344.7383">func_place_order()</text><rect fill="none" height="422.793" style="stroke:#000000;stroke-width:1.5;" width="552.271" x="624.2917" y="367.2695"/><path d="M750.2156,367.2695 L750.2156,376.7578 L740.2156,386.7578 L624.2917,386.7578 " fill="none" style="stroke:#000000;stroke-width:1.5;"/><text fill="#000000" font-family="sans-serif" font-size="14" lengthAdjust="spacing" textLength="115.9238" x="627.2917" y="381.8047">func_place_order</text><rect fill="#FEFECE" height="34.1328" rx="12.5" ry="12.5" style="stroke:#A80036;stroke-width:0.5;" width="212.1406" x="658.8455" y="403.7578"/><text fill="#000000" font-family="sans-serif" font-size="12" lengthAdjust="spacing" textLength="192.1406" x="668.8455" y="425.3594">Ki&#7875;m tra gi&#7887; h&#224;ng &amp; SP c&#7911;a seller</text><rect fill="#FEFECE" height="62.3984" rx="12.5" ry="12.5" style="stroke:#A80036;stroke-width:0.5;" width="261.248" x="634.2917" y="457.8906"/><text fill="#000000" font-family="sans-serif" font-size="12" lengthAdjust="spacing" textLength="83.7598" x="644.2917" y="479.4922">INSERT Orders</text><text fill="#000000" font-family="sans-serif" font-size="12" lengthAdjust="spacing" textLength="241.248" x="644.2917" y="493.625">status=pending, payment_status=unpaid</text><text fill="#000000" font-family="sans-serif" font-size="12" lengthAdjust="spacing" textLength="103.8984" x="644.2917" y="507.7578">service_fee=5000</text><path d="M893.948,530.2891 L893.948,561.9102 L873.948,565.9102 L893.948,569.9102 L893.948,601.5313 A0,0 0 0 0 893.948,601.5313 L1166.5627,601.5313 A0,0 0 0 0 1166.5627,601.5313 L1166.5627,540.2891 L1156.5627,530.2891 L893.948,530.2891 A0,0 0 0 0 893.948,530.2891 " fill="#FEFFDD" style="stroke:#181818;stroke-width:0.5;"/><path d="M1156.5627,530.2891 L1156.5627,540.2891 L1166.5627,540.2891 L1156.5627,530.2891 " fill="#FEFFDD" style="stroke:#181818;stroke-width:0.5;"/><text fill="#000000" font-family="sans-serif" font-size="13" font-weight="bold" lengthAdjust="spacing" textLength="144.2378" x="899.948" y="547.8574">trg_order_item_insert</text><text fill="#000000" font-family="sans-serif" font-size="13" lengthAdjust="spacing" textLength="103.2637" x="1048.2991" y="547.8574">(BEFORE INSERT)</text><text fill="#000000" font-family="sans-serif" font-size="13" lengthAdjust="spacing" textLength="199.1323" x="899.948" y="563.168">func_check_and_update_stock()</text><text fill="#000000" font-family="sans-serif" font-size="13" lengthAdjust="spacing" textLength="117.292" x="899.948" y="578.4785">&#8226; Ki&#7875;m tra t&#7891;n kho</text><text fill="#000000" font-family="sans-serif" font-size="13" lengthAdjust="spacing" textLength="71.5571" x="899.948" y="593.7891">&#8226; Tr&#7915; stock</text><rect fill="#FEFECE" height="34.1328" rx="12.5" ry="12.5" style="stroke:#A80036;stroke-width:0.5;" width="218.0645" x="655.8835" y="548.8438"/><text fill="#000000" font-family="sans-serif" font-size="12" lengthAdjust="spacing" textLength="198.0645" x="665.8835" y="570.4453">INSERT Order_Items t&#7915; Cart_items</text><rect fill="#FEFECE" height="48.2656" rx="12.5" ry="12.5" style="stroke:#A80036;stroke-width:0.5;" width="206.0645" x="661.8835" y="621.5313"/><text fill="#000000" font-family="sans-serif" font-size="12" lengthAdjust="spacing" textLength="186.0645" x="671.8835" y="643.1328">T&#237;nh amount = sum(price x qty)</text><text fill="#000000" font-family="sans-serif" font-size="12" lengthAdjust="spacing" textLength="168.7969" x="671.8835" y="657.2656">+ shipping_fee + service_fee</text><rect fill="#FEFECE" height="34.1328" rx="12.5" ry="12.5" style="stroke:#A80036;stroke-width:0.5;" width="166.748" x="681.5417" y="689.7969"/><text fill="#000000" font-family="sans-serif" font-size="12" lengthAdjust="spacing" textLength="146.748" x="691.5417" y="711.3984">X&#243;a Cart_items c&#7911;a seller</text><rect fill="#FEFECE" height="34.1328" rx="12.5" ry="12.5" style="stroke:#A80036;stroke-width:0.5;" width="118.6953" x="705.5681" y="743.9297"/><text fill="#000000" font-family="sans-serif" font-size="12" lengthAdjust="spacing" textLength="98.6953" x="715.5681" y="765.5313">RETURN order_id</text><rect fill="#FEFECE" height="34.1328" rx="12.5" ry="12.5" style="stroke:#A80036;stroke-width:0.5;" width="222.4238" x="653.7039" y="810.0625"/><text fill="#000000" font-family="sans-serif" font-size="12" lengthAdjust="spacing" textLength="202.4238" x="663.7039" y="831.6641">&#272;&#417;n &#7903; tr&#7841;ng th&#225;i pending / unpaid</text><rect fill="#FEFECE" height="62.3984" rx="12.5" ry="12.5" style="stroke:#A80036;stroke-width:0.5;" width="209.9785" x="659.9265" y="932.4609"/><text fill="#000000" font-family="sans-serif" font-size="12" lengthAdjust="spacing" textLength="189.9785" x="669.9265" y="954.0625">C&#7853;p nh&#7853;t payment_status = paid</text><text fill="#000000" font-family="sans-serif" font-size="12" lengthAdjust="spacing" textLength="156.5156" x="669.9265" y="968.1953">payment_id, payment_date</text><text fill="#000000" font-family="sans-serif" font-size="12" lengthAdjust="spacing" textLength="94.4004" x="669.9265" y="982.3281">(t&#7847;ng &#7913;ng d&#7909;ng)</text><rect fill="#FEFECE" height="48.2656" rx="12.5" ry="12.5" style="stroke:#A80036;stroke-width:0.5;" width="172.8418" x="678.4949" y="1354.4893"/><text fill="#000000" font-family="sans-serif" font-size="12" lengthAdjust="spacing" textLength="152.8418" x="688.4949" y="1376.0908">trg_orders_validate_status</text><text fill="#000000" font-family="sans-serif" font-size="12" lengthAdjust="spacing" textLength="144.457" x="688.4949" y="1390.2236">(BEFORE UPDATE Orders)</text><rect fill="#FEFECE" height="34.1328" rx="12.5" ry="12.5" style="stroke:#A80036;stroke-width:0.5;" width="172.8418" x="678.4949" y="1653.4189"/><text fill="#000000" font-family="sans-serif" font-size="12" lengthAdjust="spacing" textLength="152.8418" x="688.4949" y="1675.0205">trg_orders_validate_status</text><rect fill="none" height="337.793" style="stroke:#000000;stroke-width:1.5;" width="234.0625" x="505.1067" y="1822.5947"/><path d="M667.6575,1822.5947 L667.6575,1832.083 L657.6575,1842.083 L505.1067,1842.083 " fill="none" style="stroke:#000000;stroke-width:1.5;"/><text fill="#000000" font-family="sans-serif" font-size="14" lengthAdjust="spacing" textLength="152.5508" x="508.1067" y="1837.1299">func_confirm_received</text><rect fill="#FEFECE" height="48.2656" rx="12.5" ry="12.5" style="stroke:#A80036;stroke-width:0.5;" width="166.4199" x="538.928" y="1859.083"/><text fill="#000000" font-family="sans-serif" font-size="12" lengthAdjust="spacing" textLength="146.4199" x="548.928" y="1880.6846">Ki&#7875;m tra: delivered, paid,</text><text fill="#000000" font-family="sans-serif" font-size="12" lengthAdjust="spacing" textLength="75.9082" x="548.928" y="1894.8174">&#273;&#250;ng user_id</text><rect fill="#FEFECE" height="52.9766" rx="12.5" ry="12.5" style="stroke:#A80036;stroke-width:0.5;" width="196.4219" x="523.927" y="1941.4814"/><text fill="#000000" font-family="sans-serif" font-size="12" lengthAdjust="spacing" textLength="113.1563" x="533.927" y="1963.083">T&#237;nh seller_revenue</text><text fill="#000000" font-family="sans-serif" font-size="16" font-weight="bold" lengthAdjust="spacing" textLength="176.4219" x="533.927" y="1981.083">sum(price x quantity)</text><rect fill="#FEFECE" height="118.9297" rx="12.5" ry="12.5" style="stroke:#A80036;stroke-width:0.5;" width="214.0625" x="515.1067" y="2029.458"/><text fill="#000000" font-family="sans-serif" font-size="12" lengthAdjust="spacing" textLength="89.6016" x="525.1067" y="2051.0596">UPDATE Orders</text><text fill="#000000" font-family="sans-serif" font-size="12" lengthAdjust="spacing" textLength="103.2246" x="525.1067" y="2065.1924">status &#8594; received</text><text fill="#000000" font-family="sans-serif" font-size="12" lengthAdjust="spacing" textLength="156.4629" x="525.1067" y="2079.3252">received_at, seller_revenue</text><text fill="#000000" font-family="sans-serif" font-size="12" lengthAdjust="spacing" textLength="194.0625" x="525.1067" y="2093.458">shipping_revenue = shipping_fee</text><text fill="#000000" font-family="sans-serif" font-size="12" lengthAdjust="spacing" textLength="167.8125" x="525.1067" y="2107.5908">settlement_status = pending</text><text fill="#000000" font-family="sans-serif" font-size="12" lengthAdjust="spacing" textLength="96.0586" x="525.1067" y="2121.7236">can_rate = TRUE</text><text fill="#000000" font-family="sans-serif" font-size="12" lengthAdjust="spacing" textLength="109.2363" x="525.1067" y="2135.8564">can_return = TRUE</text><rect fill="none" height="312.8164" style="stroke:#000000;stroke-width:1.5;" width="251.0137" x="782.1868" y="1753.4619"/><path d="M1023.2004,1753.4619 L1023.2004,1762.9502 L1013.2004,1772.9502 L782.1868,1772.9502 " fill="none" style="stroke:#000000;stroke-width:1.5;"/><text fill="#000000" font-family="sans-serif" font-size="14" lengthAdjust="spacing" textLength="231.0137" x="785.1868" y="1767.9971">func_auto_complete_orders (cron)</text><rect fill="#FEFECE" height="62.3984" rx="12.5" ry="12.5" style="stroke:#A80036;stroke-width:0.5;" width="199.9531" x="807.717" y="1789.9502"/><text fill="#000000" font-family="sans-serif" font-size="12" lengthAdjust="spacing" textLength="154.1895" x="817.717" y="1811.5518">Qu&#233;t &#273;&#417;n delivered + paid</text><text fill="#000000" font-family="sans-serif" font-size="12" lengthAdjust="spacing" textLength="179.9531" x="817.717" y="1825.6846">+ delivered_at + 3 days &lt; now</text><text fill="#000000" font-family="sans-serif" font-size="12" lengthAdjust="spacing" textLength="126.2871" x="817.717" y="1839.8174">+ received_at IS NULL</text><rect fill="#FEFECE" height="34.1328" rx="12.5" ry="12.5" style="stroke:#A80036;stroke-width:0.5;" width="133.1563" x="841.1155" y="1887.3486"/><text fill="#000000" font-family="sans-serif" font-size="12" lengthAdjust="spacing" textLength="113.1563" x="851.1155" y="1908.9502">T&#237;nh seller_revenue</text><rect fill="#FEFECE" height="90.6641" rx="12.5" ry="12.5" style="stroke:#A80036;stroke-width:0.5;" width="160.2148" x="827.5862" y="1955.6143"/><text fill="#000000" font-family="sans-serif" font-size="12" lengthAdjust="spacing" textLength="89.6016" x="837.5862" y="1977.2158">UPDATE Orders</text><text fill="#000000" font-family="sans-serif" font-size="12" lengthAdjust="spacing" textLength="103.2246" x="837.5862" y="1991.3486">status &#8594; received</text><text fill="#000000" font-family="sans-serif" font-size="12" lengthAdjust="spacing" textLength="140.2148" x="837.5862" y="2005.4814">auto_completed = TRUE</text><text fill="#000000" font-family="sans-serif" font-size="12" lengthAdjust="spacing" textLength="96.0586" x="837.5862" y="2019.6143">can_rate = TRUE</text><text fill="#000000" font-family="sans-serif" font-size="12" lengthAdjust="spacing" textLength="113.3203" x="837.5862" y="2033.7471">can_return = FALSE</text><line style="stroke:#000000;stroke-width:1.5;" x1="499.1067" x2="499.1067" y1="66.2734" y2="2397.1309"/><path d="M1185.5627,1004.8594 L1185.5627,1045.4805 L1392.0286,1045.4805 L1392.0286,1014.8594 L1382.0286,1004.8594 L1185.5627,1004.8594 " fill="#FEFFDD" style="stroke:#181818;stroke-width:0.5;"/><path d="M1382.0286,1004.8594 L1382.0286,1014.8594 L1392.0286,1014.8594 L1382.0286,1004.8594 " fill="#FEFFDD" style="stroke:#181818;stroke-width:0.5;"/><text fill="#000000" font-family="sans-serif" font-size="13" lengthAdjust="spacing" textLength="150.9854" x="1191.5627" y="1022.4277">State machine cho ph&#233;p</text><text fill="#000000" font-family="sans-serif" font-size="13" lengthAdjust="spacing" textLength="185.4658" x="1191.5627" y="1037.7383">pending &#8594; shipping tr&#7921;c ti&#7871;p</text><rect fill="#FEFECE" height="34.1328" rx="12.5" ry="12.5" style="stroke:#A80036;stroke-width:0.5;" width="190.1621" x="1347.9094" y="1093.958"/><text fill="#000000" font-family="sans-serif" font-size="12" lengthAdjust="spacing" textLength="170.1621" x="1357.9094" y="1115.5596">C&#7853;p nh&#7853;t status &#8594; confirmed</text><polygon fill="#FEFECE" points="1404.0286,1045.4805,1481.9524,1045.4805,1493.9524,1057.4805,1481.9524,1069.4805,1404.0286,1069.4805,1392.0286,1057.4805,1404.0286,1045.4805" style="stroke:#A80036;stroke-width:0.5;"/><text fill="#000000" font-family="sans-serif" font-size="11" lengthAdjust="spacing" textLength="12.3911" x="1446.9905" y="1080.1152">c&#243;</text><text fill="#000000" font-family="sans-serif" font-size="11" lengthAdjust="spacing" textLength="77.9238" x="1404.0286" y="1061.6377">X&#225;c nh&#7853;n &#273;&#417;n?</text><text fill="#000000" font-family="sans-serif" font-size="11" lengthAdjust="spacing" textLength="88.9077" x="1493.9524" y="1055.1602">b&#7887; qua &#8212; h&#7907;p l&#7879;</text><polygon fill="#FEFECE" points="1442.9905,1148.0908,1454.9905,1160.0908,1442.9905,1172.0908,1430.9905,1160.0908,1442.9905,1148.0908" style="stroke:#A80036;stroke-width:0.5;"/><rect fill="#FEFECE" height="34.1328" rx="12.5" ry="12.5" style="stroke:#A80036;stroke-width:0.5;" width="106.209" x="1389.886" y="1192.0908"/><text fill="#000000" font-family="sans-serif" font-size="12" lengthAdjust="spacing" textLength="86.209" x="1399.886" y="1213.6924">&#272;&#243;ng g&#243;i h&#224;ng</text><rect fill="#FEFECE" height="34.1328" rx="12.5" ry="12.5" style="stroke:#A80036;stroke-width:0.5;" width="131.2637" x="1377.3586" y="1246.2236"/><text fill="#000000" font-family="sans-serif" font-size="12" lengthAdjust="spacing" textLength="111.2637" x="1387.3586" y="1267.8252">B&#224;n giao cho &#272;VVC</text><rect fill="#FEFECE" height="34.1328" rx="12.5" ry="12.5" style="stroke:#A80036;stroke-width:0.5;" width="181.502" x="1352.2395" y="1300.3564"/><text fill="#000000" font-family="sans-serif" font-size="12" lengthAdjust="spacing" textLength="161.502" x="1362.2395" y="1321.958">C&#7853;p nh&#7853;t status &#8594; shipping</text><line style="stroke:#000000;stroke-width:1.5;" x1="1180.5627" x2="1180.5627" y1="66.2734" y2="2397.1309"/><rect fill="#FEFECE" height="34.1328" rx="12.5" ry="12.5" style="stroke:#A80036;stroke-width:0.5;" width="192.2949" x="1615.4138" y="1422.7549"/><text fill="#000000" font-family="sans-serif" font-size="12" lengthAdjust="spacing" textLength="172.2949" x="1625.4138" y="1444.3564">Nh&#7853;n h&#224;ng, c&#7853;p nh&#7853;t tracking</text><rect fill="#FEFECE" height="34.1328" rx="12.5" ry="12.5" style="stroke:#A80036;stroke-width:0.5;" width="190.584" x="1616.2693" y="1476.8877"/><text fill="#000000" font-family="sans-serif" font-size="12" lengthAdjust="spacing" textLength="170.584" x="1626.2693" y="1498.4893">V&#7853;n chuy&#7875;n (shipping_status)</text><rect fill="#FEFECE" height="34.1328" rx="12.5" ry="12.5" style="stroke:#A80036;stroke-width:0.5;" width="148.4375" x="1637.3425" y="1531.0205"/><text fill="#000000" font-family="sans-serif" font-size="12" lengthAdjust="spacing" textLength="128.4375" x="1647.3425" y="1552.6221">Giao h&#224;ng th&#224;nh c&#244;ng</text><rect fill="#FEFECE" height="48.2656" rx="12.5" ry="12.5" style="stroke:#A80036;stroke-width:0.5;" width="235.4023" x="1593.8601" y="1585.1533"/><text fill="#000000" font-family="sans-serif" font-size="12" lengthAdjust="spacing" textLength="164.1855" x="1603.8601" y="1606.7549">C&#7853;p nh&#7853;t status &#8594; delivered</text><text fill="#000000" font-family="sans-serif" font-size="12" lengthAdjust="spacing" textLength="215.4023" x="1603.8601" y="1620.8877">delivered_at = CURRENT_TIMESTAMP</text><line style="stroke:#000000;stroke-width:1.5;" x1="1587.8601" x2="1587.8601" y1="66.2734" y2="2397.1309"/><line style="stroke:#000000;stroke-width:1.5;" x1="1833.2625" x2="1833.2625" y1="66.2734" y2="2397.1309"/><line style="stroke:#181818;stroke-width:1;" x1="303.8267" x2="303.8267" y1="112.4727" y2="132.4727"/><polygon fill="#181818" points="299.8267,122.4727,303.8267,132.4727,307.8267,122.4727,303.8267,126.4727" style="stroke:#181818;stroke-width:1;"/><line style="stroke:#181818;stroke-width:1;" x1="303.8267" x2="303.8267" y1="180.7383" y2="200.7383"/><polygon fill="#181818" points="299.8267,190.7383,303.8267,200.7383,307.8267,190.7383,303.8267,194.7383" style="stroke:#181818;stroke-width:1;"/><line style="stroke:#181818;stroke-width:1;" x1="303.8267" x2="303.8267" y1="249.0039" y2="269.0039"/><polygon fill="#181818" points="299.8267,259.0039,303.8267,269.0039,307.8267,259.0039,303.8267,263.0039" style="stroke:#181818;stroke-width:1;"/><line style="stroke:#181818;stroke-width:1;" x1="224.4543" x2="161.0488" y1="1720.5068" y2="1720.5068"/><line style="stroke:#181818;stroke-width:1;" x1="161.0488" x2="161.0488" y1="1720.5068" y2="1753.4619"/><polygon fill="#181818" points="157.0488,1743.4619,161.0488,1753.4619,165.0488,1743.4619,161.0488,1747.4619" style="stroke:#181818;stroke-width:1;"/><line style="stroke:#181818;stroke-width:1;" x1="303.8267" x2="303.8267" y1="2238.3877" y2="2262.8652"/><polygon fill="#181818" points="299.8267,2252.8652,303.8267,2262.8652,307.8267,2252.8652,303.8267,2256.8652" style="stroke:#181818;stroke-width:1;"/><line style="stroke:#181818;stroke-width:1;" x1="362.1738" x2="382.5054" y1="2226.3877" y2="2226.3877"/><polygon fill="#181818" points="378.5054,2276.998,382.5054,2286.998,386.5054,2276.998,382.5054,2280.998" style="stroke:#181818;stroke-width:1;"/><line style="stroke:#181818;stroke-width:1;" x1="382.5054" x2="382.5054" y1="2226.3877" y2="2343.1309"/><line style="stroke:#181818;stroke-width:1;" x1="382.5054" x2="315.8267" y1="2343.1309" y2="2343.1309"/><polygon fill="#181818" points="325.8267,2339.1309,315.8267,2343.1309,325.8267,2347.1309,321.8267,2343.1309" style="stroke:#181818;stroke-width:1;"/><line style="stroke:#181818;stroke-width:1;" x1="303.8267" x2="303.8267" y1="2311.1309" y2="2331.1309"/><polygon fill="#181818" points="299.8267,2321.1309,303.8267,2331.1309,307.8267,2321.1309,303.8267,2325.1309" style="stroke:#181818;stroke-width:1;"/><line style="stroke:#181818;stroke-width:1;" x1="303.8267" x2="303.8267" y1="2194.3877" y2="2214.3877"/><polygon fill="#181818" points="299.8267,2204.3877,303.8267,2214.3877,307.8267,2204.3877,303.8267,2208.3877" style="stroke:#181818;stroke-width:1;"/><line style="stroke:#181818;stroke-width:1;" x1="303.8267" x2="303.8267" y1="2355.1309" y2="2375.1309"/><polygon fill="#181818" points="299.8267,2365.1309,303.8267,2375.1309,307.8267,2365.1309,303.8267,2369.1309" style="stroke:#181818;stroke-width:1;"/><line style="stroke:#181818;stroke-width:1;" x1="764.9158" x2="764.9158" y1="437.8906" y2="457.8906"/><polygon fill="#181818" points="760.9158,447.8906,764.9158,457.8906,768.9158,447.8906,764.9158,451.8906" style="stroke:#181818;stroke-width:1;"/><line style="stroke:#181818;stroke-width:1;" x1="764.9158" x2="764.9158" y1="520.2891" y2="548.8438"/><polygon fill="#181818" points="760.9158,538.8438,764.9158,548.8438,768.9158,538.8438,764.9158,542.8438" style="stroke:#181818;stroke-width:1;"/><line style="stroke:#181818;stroke-width:1;" x1="764.9158" x2="764.9158" y1="582.9766" y2="621.5313"/><polygon fill="#181818" points="760.9158,611.5313,764.9158,621.5313,768.9158,611.5313,764.9158,615.5313" style="stroke:#181818;stroke-width:1;"/><line style="stroke:#181818;stroke-width:1;" x1="764.9158" x2="764.9158" y1="669.7969" y2="689.7969"/><polygon fill="#181818" points="760.9158,679.7969,764.9158,689.7969,768.9158,679.7969,764.9158,683.7969" style="stroke:#181818;stroke-width:1;"/><line style="stroke:#181818;stroke-width:1;" x1="764.9158" x2="764.9158" y1="723.9297" y2="743.9297"/><polygon fill="#181818" points="760.9158,733.9297,764.9158,743.9297,768.9158,733.9297,764.9158,737.9297" style="stroke:#181818;stroke-width:1;"/><line style="stroke:#181818;stroke-width:1;" x1="764.9158" x2="764.9158" y1="357.2695" y2="403.7578"/><polygon fill="#181818" points="760.9158,393.7578,764.9158,403.7578,768.9158,393.7578,764.9158,397.7578" style="stroke:#181818;stroke-width:1;"/><line style="stroke:#181818;stroke-width:1;" x1="764.9158" x2="764.9158" y1="778.0625" y2="810.0625"/><polygon fill="#181818" points="760.9158,800.0625,764.9158,810.0625,768.9158,800.0625,764.9158,804.0625" style="stroke:#181818;stroke-width:1;"/><line style="stroke:#181818;stroke-width:1;" x1="622.1379" x2="622.1379" y1="1907.3486" y2="1941.4814"/><polygon fill="#181818" points="618.1379,1931.4814,622.1379,1941.4814,626.1379,1931.4814,622.1379,1935.4814" style="stroke:#181818;stroke-width:1;"/><line style="stroke:#181818;stroke-width:1;" x1="622.1379" x2="622.1379" y1="1994.458" y2="2029.458"/><polygon fill="#181818" points="618.1379,2019.458,622.1379,2029.458,626.1379,2019.458,622.1379,2023.458" style="stroke:#181818;stroke-width:1;"/><line style="stroke:#181818;stroke-width:1;" x1="907.6936" x2="907.6936" y1="1852.3486" y2="1887.3486"/><polygon fill="#181818" points="903.6936,1877.3486,907.6936,1887.3486,911.6936,1877.3486,907.6936,1881.3486" style="stroke:#181818;stroke-width:1;"/><line style="stroke:#181818;stroke-width:1;" x1="907.6936" x2="907.6936" y1="1921.4814" y2="1955.6143"/><polygon fill="#181818" points="903.6936,1945.6143,907.6936,1955.6143,911.6936,1945.6143,907.6936,1949.6143" style="stroke:#181818;stroke-width:1;"/><line style="stroke:#181818;stroke-width:1;" x1="1442.9905" x2="1442.9905" y1="1069.4805" y2="1093.958"/><polygon fill="#181818" points="1438.9905,1083.958,1442.9905,1093.958,1446.9905,1083.958,1442.9905,1087.958" style="stroke:#181818;stroke-width:1;"/><line style="stroke:#181818;stroke-width:1;" x1="1493.9524" x2="1548.0715" y1="1057.4805" y2="1057.4805"/><polygon fill="#181818" points="1544.0715,1101.0244,1548.0715,1111.0244,1552.0715,1101.0244,1548.0715,1105.0244" style="stroke:#181818;stroke-width:1;"/><line style="stroke:#181818;stroke-width:1;" x1="1548.0715" x2="1548.0715" y1="1057.4805" y2="1160.0908"/><line style="stroke:#181818;stroke-width:1;" x1="1548.0715" x2="1454.9905" y1="1160.0908" y2="1160.0908"/><polygon fill="#181818" points="1464.9905,1156.0908,1454.9905,1160.0908,1464.9905,1164.0908,1460.9905,1160.0908" style="stroke:#181818;stroke-width:1;"/><line style="stroke:#181818;stroke-width:1;" x1="1442.9905" x2="1442.9905" y1="1128.0908" y2="1148.0908"/><polygon fill="#181818" points="1438.9905,1138.0908,1442.9905,1148.0908,1446.9905,1138.0908,1442.9905,1142.0908" style="stroke:#181818;stroke-width:1;"/><line style="stroke:#181818;stroke-width:1;" x1="1442.9905" x2="1442.9905" y1="1172.0908" y2="1192.0908"/><polygon fill="#181818" points="1438.9905,1182.0908,1442.9905,1192.0908,1446.9905,1182.0908,1442.9905,1186.0908" style="stroke:#181818;stroke-width:1;"/><line style="stroke:#181818;stroke-width:1;" x1="1442.9905" x2="1442.9905" y1="1226.2236" y2="1246.2236"/><polygon fill="#181818" points="1438.9905,1236.2236,1442.9905,1246.2236,1446.9905,1236.2236,1442.9905,1240.2236" style="stroke:#181818;stroke-width:1;"/><line style="stroke:#181818;stroke-width:1;" x1="1442.9905" x2="1442.9905" y1="1280.3564" y2="1300.3564"/><polygon fill="#181818" points="1438.9905,1290.3564,1442.9905,1300.3564,1446.9905,1290.3564,1442.9905,1294.3564" style="stroke:#181818;stroke-width:1;"/><line style="stroke:#181818;stroke-width:1;" x1="1711.5613" x2="1711.5613" y1="1456.8877" y2="1476.8877"/><polygon fill="#181818" points="1707.5613,1466.8877,1711.5613,1476.8877,1715.5613,1466.8877,1711.5613,1470.8877" style="stroke:#181818;stroke-width:1;"/><line style="stroke:#181818;stroke-width:1;" x1="1711.5613" x2="1711.5613" y1="1511.0205" y2="1531.0205"/><polygon fill="#181818" points="1707.5613,1521.0205,1711.5613,1531.0205,1715.5613,1521.0205,1711.5613,1525.0205" style="stroke:#181818;stroke-width:1;"/><line style="stroke:#181818;stroke-width:1;" x1="1711.5613" x2="1711.5613" y1="1565.1533" y2="1585.1533"/><polygon fill="#181818" points="1707.5613,1575.1533,1711.5613,1585.1533,1715.5613,1575.1533,1711.5613,1579.1533" style="stroke:#181818;stroke-width:1;"/><line style="stroke:#181818;stroke-width:1;" x1="303.8267" x2="303.8267" y1="303.1367" y2="308.1367"/><line style="stroke:#181818;stroke-width:1;" x1="303.8267" x2="764.9158" y1="308.1367" y2="308.1367"/><line style="stroke:#181818;stroke-width:1;" x1="764.9158" x2="764.9158" y1="308.1367" y2="323.1367"/><polygon fill="#181818" points="760.9158,313.1367,764.9158,323.1367,768.9158,313.1367,764.9158,317.1367" style="stroke:#181818;stroke-width:1;"/><line style="stroke:#181818;stroke-width:1;" x1="764.9158" x2="764.9158" y1="844.1953" y2="849.1953"/><line style="stroke:#181818;stroke-width:1;" x1="764.9158" x2="303.8267" y1="849.1953" y2="849.1953"/><line style="stroke:#181818;stroke-width:1;" x1="303.8267" x2="303.8267" y1="849.1953" y2="864.1953"/><polygon fill="#181818" points="299.8267,854.1953,303.8267,864.1953,307.8267,854.1953,303.8267,858.1953" style="stroke:#181818;stroke-width:1;"/><line style="stroke:#181818;stroke-width:1;" x1="303.8267" x2="303.8267" y1="912.4609" y2="917.4609"/><line style="stroke:#181818;stroke-width:1;" x1="303.8267" x2="764.9158" y1="917.4609" y2="917.4609"/><line style="stroke:#181818;stroke-width:1;" x1="764.9158" x2="764.9158" y1="917.4609" y2="932.4609"/><polygon fill="#181818" points="760.9158,922.4609,764.9158,932.4609,768.9158,922.4609,764.9158,926.4609" style="stroke:#181818;stroke-width:1;"/><line style="stroke:#181818;stroke-width:1;" x1="764.9158" x2="764.9158" y1="994.8594" y2="1007.6699"/><line style="stroke:#181818;stroke-width:1;" x1="764.9158" x2="1442.9905" y1="1007.6699" y2="1007.6699"/><line style="stroke:#181818;stroke-width:1;" x1="1442.9905" x2="1442.9905" y1="1007.6699" y2="1045.4805"/><polygon fill="#181818" points="1438.9905,1035.4805,1442.9905,1045.4805,1446.9905,1035.4805,1442.9905,1039.4805" style="stroke:#181818;stroke-width:1;"/><line style="stroke:#181818;stroke-width:1;" x1="1442.9905" x2="1442.9905" y1="1334.4893" y2="1339.4893"/><line style="stroke:#181818;stroke-width:1;" x1="1442.9905" x2="764.9158" y1="1339.4893" y2="1339.4893"/><line style="stroke:#181818;stroke-width:1;" x1="764.9158" x2="764.9158" y1="1339.4893" y2="1354.4893"/><polygon fill="#181818" points="760.9158,1344.4893,764.9158,1354.4893,768.9158,1344.4893,764.9158,1348.4893" style="stroke:#181818;stroke-width:1;"/><line style="stroke:#181818;stroke-width:1;" x1="764.9158" x2="764.9158" y1="1402.7549" y2="1407.7549"/><line style="stroke:#181818;stroke-width:1;" x1="764.9158" x2="1711.5613" y1="1407.7549" y2="1407.7549"/><line style="stroke:#181818;stroke-width:1;" x1="1711.5613" x2="1711.5613" y1="1407.7549" y2="1422.7549"/><polygon fill="#181818" points="1707.5613,1412.7549,1711.5613,1422.7549,1715.5613,1412.7549,1711.5613,1416.7549" style="stroke:#181818;stroke-width:1;"/><line style="stroke:#181818;stroke-width:1;" x1="1711.5613" x2="1711.5613" y1="1633.4189" y2="1638.4189"/><line style="stroke:#181818;stroke-width:1;" x1="1711.5613" x2="764.9158" y1="1638.4189" y2="1638.4189"/><line style="stroke:#181818;stroke-width:1;" x1="764.9158" x2="764.9158" y1="1638.4189" y2="1653.4189"/><polygon fill="#181818" points="760.9158,1643.4189,764.9158,1653.4189,768.9158,1643.4189,764.9158,1647.4189" style="stroke:#181818;stroke-width:1;"/><line style="stroke:#181818;stroke-width:1;" x1="161.0488" x2="161.0488" y1="1787.5947" y2="1823.3389"/><line style="stroke:#181818;stroke-width:1;" x1="161.0488" x2="622.1379" y1="1823.3389" y2="1823.3389"/><line style="stroke:#181818;stroke-width:1;" x1="622.1379" x2="622.1379" y1="1823.3389" y2="1859.083"/><polygon fill="#181818" points="618.1379,1849.083,622.1379,1859.083,626.1379,1849.083,622.1379,1853.083" style="stroke:#181818;stroke-width:1;"/><line style="stroke:#181818;stroke-width:1;" x1="383.199" x2="907.6936" y1="1720.5068" y2="1720.5068"/><line style="stroke:#181818;stroke-width:1;" x1="907.6936" x2="907.6936" y1="1720.5068" y2="1789.9502"/><polygon fill="#181818" points="903.6936,1779.9502,907.6936,1789.9502,911.6936,1779.9502,907.6936,1783.9502" style="stroke:#181818;stroke-width:1;"/><line style="stroke:#181818;stroke-width:1;" x1="622.1379" x2="622.1379" y1="2148.3877" y2="2164.3877"/><line style="stroke:#181818;stroke-width:1;" x1="622.1379" x2="273.8267" y1="2164.3877" y2="2164.3877"/><line style="stroke:#181818;stroke-width:1;" x1="273.8267" x2="273.8267" y1="2164.3877" y2="2182.3877"/><line style="stroke:#181818;stroke-width:1;" x1="273.8267" x2="291.8267" y1="2182.3877" y2="2182.3877"/><polygon fill="#181818" points="281.8267,2178.3877,291.8267,2182.3877,281.8267,2186.3877,285.8267,2182.3877" style="stroke:#181818;stroke-width:1;"/><line style="stroke:#181818;stroke-width:1;" x1="907.6936" x2="907.6936" y1="2046.2783" y2="2182.3877"/><line style="stroke:#181818;stroke-width:1;" x1="907.6936" x2="315.8267" y1="2182.3877" y2="2182.3877"/><polygon fill="#181818" points="325.8267,2178.3877,315.8267,2182.3877,325.8267,2186.3877,321.8267,2182.3877" style="stroke:#181818;stroke-width:1;"/><line style="stroke:#181818;stroke-width:1;" x1="764.9158" x2="764.9158" y1="1687.5518" y2="1692.5518"/><line style="stroke:#181818;stroke-width:1;" x1="764.9158" x2="303.8267" y1="1692.5518" y2="1692.5518"/><line style="stroke:#181818;stroke-width:1;" x1="303.8267" x2="303.8267" y1="1692.5518" y2="1707.5518"/><polygon fill="#181818" points="299.8267,1697.5518,303.8267,1707.5518,307.8267,1697.5518,303.8267,1701.5518" style="stroke:#181818;stroke-width:1;"/><text fill="#000000" font-family="sans-serif" font-size="18" lengthAdjust="spacing" textLength="102.4541" x="205.8263" y="83.6758">Kh&#225;ch h&#224;ng</text><text fill="#000000" font-family="sans-serif" font-size="18" lengthAdjust="spacing" textLength="80.3057" x="799.6819" y="83.6758">H&#7879; th&#7889;ng</text><text fill="#000000" font-family="sans-serif" font-size="18" lengthAdjust="spacing" textLength="92.1533" x="1338.1348" y="83.6758">Ng&#432;&#7901;i b&#225;n</text><text fill="#000000" font-family="sans-serif" font-size="18" lengthAdjust="spacing" textLength="49.4736" x="1685.8245" y="83.6758">&#272;VVC</text><!--SRC=[bLPTQ-D657tNhxYaqBKJimqiBSLkA8dNsGsRU5DR2VjW4BFIM1eiZnHfvDGq2mk5zcdffkrhQT9Gbcm9j4sXO3tqGM7_X_9BUcSaERATbEwBzJ5tvjvxxZb7lWVRKHh_m6qmdUI2Er1vJ7n_3Bj4E5Nj7hHjjLm7Bx1eOFXaFAHS67tNExmV7hYQ9fXmwVmXroz_XAlNwUHl0KvomkqQw0x1zy9BJdaD7Z7Y5GlFabCJk9DEBdX-wV7k8HkwXDEm3aySN7UoO3Y2nsdyBGWdZO_LOzj-ztiQ_yJWEPwBprUlz_URcXOE6FT9G8OGEiJo3Xa6zuaRqjBAkYdOY8dn1Z47Tk15t6fwhXV01vkjpLQpTLkaWY2FMlzqTVN19vfsL2xmI0i52OHMrvtaBIPF9sSSV6pgV0YZvCG3cwNnTrbiZrUQ61l2Ho2l1XDq65ORMhs9tRtY45BNfK4jQwdMupuYY-qmlmQsmoJGanhiwhgEMnwbyGM3SV8s0ZETl8dWwlW6-mOMMORjIAlt8suQlajCQgYUAfWNUyLHCe_3qlpo4dob0TIVOF5V3q44fDm7V0ZTNKmRlo5vpGqPlDNkjZewF9Nxmnv7N4GKhlcKMqnElU1H_Zv2g9c5OJGOCKpRftJjuzNLrOMZZ2q94uWq_gq4cmpZdg0GCDiH-02ml2m2EojVnHXC7YwMbw6oqTfyscb1TcnLHQkEJOUQ0uDmouXyYmYAnNdce995NB_y1Ke024bt63ZUT54FP4rg2xx3FbL5idvTIO8CaMC2rY2CXXK_m2xXIpWGusgFhwYv-WYCR1pmyGO6XS2pv9AKsbr4kzFIzphjNAFCQcWljFhLwtUeYJJ-6GjE9wSuAO5KPP3F07cNeTvO876z95QawOwtus7qVdkNZF6AD9h4U3MTQ8nuA1GKqP78JnzMRw5R4rNjP-8MSvD7FBB95w-PTKCEEGJCBv3IM6yQd-ElbSQ_SbjbcH7_aSRwK2cRoTKnzlzv5UkW72fcSYa7ELjBNiFrDz-3wV4-2uOKuQ1e551vBXb-417bPTZAcGykjbLTf5eNJw4m9AR3E4LOF9HySkwhjG9icQ8Oifn7_8S9WgMJV_moMMHmNqukkSGmExbaXOJh6tX5sQ5loWJA51hQdTqKgMuPnbGMeJ4YBik9BdSYrBaqzdOVhkkjNBmAQvKGTxSpR7FlDilfKHRcGEMixwkWAK4gKtfdYQJBtNm292rFa6vcyfVQV5TF5dNPY0OKoJAzDOXKL7ElqscrTKFVscbrzVMTtVTgUv7_yqnQme6S5GygPgd7HU1XxQFaJ_nz0DnEJiOBP4DVViLoSyduPGJKf5YxLIcqMeCeL3TLgUIvif50SxOyVqxcpJFkNB-1ggRKXL-Fg-DaWeNcgHhPbioOCXl10qUKHwYtEOUA2CS2njLypmmr2bzNyoagwl7Y3gTJMpX-oeNyZNJ4all9Ru30VnHp7f79gCTDmer0ocqDzCvUAtz1HHJm_9MiyqMkuO4ZEQKKV10bfyMSgly7Q1893z4U-YuL-NSmnCdYrAjJpB-8adEH6SqDvkZVcQMjm0nFLp2zHSOXV8PYFvJB9PnWgmljlUtj_vZCUmnWfdPh5gixmTjSt-uMw2aVkaqMSqSiC1wLSegLsmpHBl_zGMyfVR_lun5CkNXvJjKyBtv3VUrV]--></g></svg>