<svg xmlns="http://www.w3.org/2000/svg" xmlns:xlink="http://www.w3.org/1999/xlink" contentStyleType="text/css" height="995px" preserveAspectRatio="none" style="width:915px;height:995px;background:#FFFFFF;" version="1.1" viewBox="0 0 915 995" width="915px" zoomAndPan="magnify"><title>Lu&#7891;ng &#272;&#7863;t h&#224;ng &amp; Thanh to&#225;n &#8212; T&#7893;ng quan</title><defs/><g><text fill="#000000" font-family="sans-serif" font-size="14" font-weight="bold" lengthAdjust="spacing" textLength="317.3447" x="297.4192" y="33.5352">Lu&#7891;ng &#272;&#7863;t h&#224;ng &amp; Thanh to&#225;n &#8212; T&#7893;ng quan</text><text fill="#000000" font-family="sans-serif" font-size="14" font-weight="bold" lengthAdjust="spacing" textLength="182.4238" x="364.8796" y="50.0234">(order_payment_flow.sql)</text><rect fill="none" height="21.1992" style="stroke:none;stroke-width:1;" width="882.1831" x="15" y="66.2734"/><ellipse cx="211.0464" cy="102.4727" fill="#222222" rx="10" ry="10" style="stroke:#222222;stroke-width:1;"/><rect fill="#FEFECE" height="34.1328" rx="12.5" ry="12.5" style="stroke:#A80036;stroke-width:0.5;" width="148.7422" x="136.6753" y="132.4727"/><text fill="#000000" font-family="sans-serif" font-size="12" lengthAdjust="spacing" textLength="128.7422" x="146.6753" y="154.0742">Th&#234;m SP v&#224;o gi&#7887; h&#224;ng</text><rect fill="#FEFECE" height="34.1328" rx="12.5" ry="12.5" style="stroke:#A80036;stroke-width:0.5;" width="155.1523" x="133.4702" y="186.6055"/><text fill="#000000" font-family="sans-serif" font-size="12" lengthAdjust="spacing" textLength="135.1523" x="143.4702" y="208.207">&#272;&#7863;t h&#224;ng &amp; Thanh to&#225;n</text><polygon fill="#FEFECE" points="118.3789,513.8008,303.7139,513.8008,315.7139,525.8008,303.7139,537.8008,118.3789,537.8008,106.3789,525.8008,118.3789,513.8008" style="stroke:#A80036;stroke-width:0.5;"/><text fill="#000000" font-family="sans-serif" font-size="11" lengthAdjust="spacing" textLength="185.335" x="118.3789" y="529.958">X&#225;c nh&#7853;n nh&#7853;n h&#224;ng trong 3 ng&#224;y?</text><text fill="#000000" font-family="sans-serif" font-size="11" lengthAdjust="spacing" textLength="12.3911" x="93.9878" y="523.4805">c&#243;</text><text fill="#000000" font-family="sans-serif" font-size="11" lengthAdjust="spacing" textLength="148.9028" x="315.7139" y="523.4805">qu&#225; 3 ng&#224;y - H&#7879; th&#7889;ng auto</text><rect fill="#FEFECE" height="48.2656" rx="12.5" ry="12.5" style="stroke:#A80036;stroke-width:0.5;" width="150.7578" x="21" y="547.8008"/><text fill="#000000" font-family="sans-serif" font-size="12" lengthAdjust="spacing" textLength="130.7578" x="31" y="569.4023">func_confirm_received</text><text fill="#000000" font-family="sans-serif" font-size="12" lengthAdjust="spacing" textLength="56.1504" x="31" y="583.5352">[received]</text><rect fill="#FEFECE" height="48.2656" rx="12.5" ry="12.5" style="stroke:#A80036;stroke-width:0.5;" width="180.5352" x="235.4463" y="547.8008"/><text fill="#000000" font-family="sans-serif" font-size="12" lengthAdjust="spacing" textLength="160.5352" x="245.4463" y="569.4023">func_auto_complete_orders</text><text fill="#000000" font-family="sans-serif" font-size="12" lengthAdjust="spacing" textLength="144.8262" x="245.4463" y="583.5352">[received, kh&#243;a tr&#7843; h&#224;ng]</text><polygon fill="#FEFECE" points="211.0464,602.0664,223.0464,614.0664,211.0464,626.0664,199.0464,614.0664,211.0464,602.0664" style="stroke:#A80036;stroke-width:0.5;"/><rect fill="#FEFECE" height="48.2656" rx="12.5" ry="12.5" style="stroke:#A80036;stroke-width:0.5;" width="175.9824" x="123.0552" y="694.5439"/><text fill="#000000" font-family="sans-serif" font-size="12" lengthAdjust="spacing" textLength="118.2422" x="133.0552" y="716.1455">func_process_return</text><text fill="#000000" font-family="sans-serif" font-size="12" lengthAdjust="spacing" textLength="155.9824" x="133.0552" y="730.2783">[partial_refund / refunded]</text><polygon fill="#FEFECE" points="184.9268,646.0664,237.166,646.0664,249.166,658.0664,237.166,670.0664,184.9268,670.0664,172.9268,658.0664,184.9268,646.0664" style="stroke:#A80036;stroke-width:0.5;"/><text fill="#000000" font-family="sans-serif" font-size="11" lengthAdjust="spacing" textLength="12.3911" x="215.0464" y="680.7012">c&#243;</text><text fill="#000000" font-family="sans-serif" font-size="11" lengthAdjust="spacing" textLength="52.2393" x="184.9268" y="662.2236">Tr&#7843; h&#224;ng?</text><text fill="#000000" font-family="sans-serif" font-size="11" lengthAdjust="spacing" textLength="33.6982" x="249.166" y="655.7461">kh&#244;ng</text><polygon fill="#FEFECE" points="211.0464,762.8096,223.0464,774.8096,211.0464,786.8096,199.0464,774.8096,211.0464,762.8096" style="stroke:#A80036;stroke-width:0.5;"/><rect fill="#FEFECE" height="34.1328" rx="12.5" ry="12.5" style="stroke:#A80036;stroke-width:0.5;" width="88.7773" x="166.6577" y="806.8096"/><text fill="#000000" font-family="sans-serif" font-size="12" lengthAdjust="spacing" textLength="68.7773" x="176.6577" y="828.4111">&#272;&#225;nh gi&#225; SP</text><ellipse cx="211.0464" cy="871.9424" fill="none" rx="11" ry="11" style="stroke:#222222;stroke-width:1;"/><ellipse cx="211.0464" cy="871.9424" fill="#222222" rx="6" ry="6" style="stroke:#222222;stroke-width:1;"/><line style="stroke:#000000;stroke-width:1.5;" x1="15" x2="15" y1="66.2734" y2="882.9424"/><rect fill="#FEFECE" height="48.2656" rx="12.5" ry="12.5" style="stroke:#A80036;stroke-width:0.5;" width="129.4238" x="487.4438" y="240.7383"/><text fill="#000000" font-family="sans-serif" font-size="12" lengthAdjust="spacing" textLength="107.168" x="497.4438" y="262.3398">func_place_order()</text><text fill="#000000" font-family="sans-serif" font-size="12" lengthAdjust="spacing" textLength="109.4238" x="497.4438" y="276.4727">[pending / unpaid]</text><rect fill="#FEFECE" height="48.2656" rx="12.5" ry="12.5" style="stroke:#A80036;stroke-width:0.5;" width="153.0781" x="475.6167" y="309.0039"/><text fill="#000000" font-family="sans-serif" font-size="12" lengthAdjust="spacing" textLength="69.3281" x="485.6167" y="330.6055">Tr&#7915; t&#7891;n kho</text><text fill="#000000" font-family="sans-serif" font-size="12" lengthAdjust="spacing" textLength="133.0781" x="485.6167" y="344.7383">(trg_order_item_insert)</text><line style="stroke:#000000;stroke-width:1.5;" x1="469.6167" x2="469.6167" y1="66.2734" y2="882.9424"/><rect fill="#FEFECE" height="48.2656" rx="12.5" ry="12.5" style="stroke:#A80036;stroke-width:0.5;" width="161.6152" x="638.6948" y="377.2695"/><text fill="#000000" font-family="sans-serif" font-size="12" lengthAdjust="spacing" textLength="106.834" x="648.6948" y="398.8711">X&#7917; l&#253; &amp; giao &#272;VVC</text><text fill="#000000" font-family="sans-serif" font-size="12" lengthAdjust="spacing" textLength="141.6152" x="648.6948" y="413.0039">[confirmed -&gt; shipping]</text><line style="stroke:#000000;stroke-width:1.5;" x1="632.6948" x2="632.6948" y1="66.2734" y2="882.9424"/><rect fill="#FEFECE" height="48.2656" rx="12.5" ry="12.5" style="stroke:#A80036;stroke-width:0.5;" width="81.0254" x="810.3101" y="445.5352"/><text fill="#000000" font-family="sans-serif" font-size="12" lengthAdjust="spacing" textLength="58.9395" x="820.3101" y="467.1367">Giao h&#224;ng</text><text fill="#000000" font-family="sans-serif" font-size="12" lengthAdjust="spacing" textLength="61.0254" x="820.3101" y="481.2695">[delivered]</text><line style="stroke:#000000;stroke-width:1.5;" x1="804.3101" x2="804.3101" y1="66.2734" y2="882.9424"/><line style="stroke:#000000;stroke-width:1.5;" x1="895.3354" x2="895.3354" y1="66.2734" y2="882.9424"/><line style="stroke:#181818;stroke-width:1;" x1="211.0464" x2="211.0464" y1="112.4727" y2="132.4727"/><polygon fill="#181818" points="207.0464,122.4727,211.0464,132.4727,215.0464,122.4727,211.0464,126.4727" style="stroke:#181818;stroke-width:1;"/><line style="stroke:#181818;stroke-width:1;" x1="211.0464" x2="211.0464" y1="166.6055" y2="186.6055"/><polygon fill="#181818" points="207.0464,176.6055,211.0464,186.6055,215.0464,176.6055,211.0464,180.6055" style="stroke:#181818;stroke-width:1;"/><line style="stroke:#181818;stroke-width:1;" x1="106.3789" x2="96.3789" y1="525.8008" y2="525.8008"/><line style="stroke:#181818;stroke-width:1;" x1="96.3789" x2="96.3789" y1="525.8008" y2="547.8008"/><polygon fill="#181818" points="92.3789,537.8008,96.3789,547.8008,100.3789,537.8008,96.3789,541.8008" style="stroke:#181818;stroke-width:1;"/><line style="stroke:#181818;stroke-width:1;" x1="315.7139" x2="325.7139" y1="525.8008" y2="525.8008"/><line style="stroke:#181818;stroke-width:1;" x1="325.7139" x2="325.7139" y1="525.8008" y2="547.8008"/><polygon fill="#181818" points="321.7139,537.8008,325.7139,547.8008,329.7139,537.8008,325.7139,541.8008" style="stroke:#181818;stroke-width:1;"/><line style="stroke:#181818;stroke-width:1;" x1="96.3789" x2="96.3789" y1="596.0664" y2="614.0664"/><line style="stroke:#181818;stroke-width:1;" x1="96.3789" x2="199.0464" y1="614.0664" y2="614.0664"/><polygon fill="#181818" points="189.0464,610.0664,199.0464,614.0664,189.0464,618.0664,193.0464,614.0664" style="stroke:#181818;stroke-width:1;"/><line style="stroke:#181818;stroke-width:1;" x1="325.7139" x2="325.7139" y1="596.0664" y2="614.0664"/><line style="stroke:#181818;stroke-width:1;" x1="325.7139" x2="223.0464" y1="614.0664" y2="614.0664"/><polygon fill="#181818" points="233.0464,610.0664,223.0464,614.0664,233.0464,618.0664,229.0464,614.0664" style="stroke:#181818;stroke-width:1;"/><line style="stroke:#181818;stroke-width:1;" x1="211.0464" x2="211.0464" y1="670.0664" y2="694.5439"/><polygon fill="#181818" points="207.0464,684.5439,211.0464,694.5439,215.0464,684.5439,211.0464,688.5439" style="stroke:#181818;stroke-width:1;"/><line style="stroke:#181818;stroke-width:1;" x1="249.166" x2="309.0376" y1="658.0664" y2="658.0664"/><polygon fill="#181818" points="305.0376,708.6768,309.0376,718.6768,313.0376,708.6768,309.0376,712.6768" style="stroke:#181818;stroke-width:1;"/><line style="stroke:#181818;stroke-width:1;" x1="309.0376" x2="309.0376" y1="658.0664" y2="774.8096"/><line style="stroke:#181818;stroke-width:1;" x1="309.0376" x2="223.0464" y1="774.8096" y2="774.8096"/><polygon fill="#181818" points="233.0464,770.8096,223.0464,774.8096,233.0464,778.8096,229.0464,774.8096" style="stroke:#181818;stroke-width:1;"/><line style="stroke:#181818;stroke-width:1;" x1="211.0464" x2="211.0464" y1="742.8096" y2="762.8096"/><polygon fill="#181818" points="207.0464,752.8096,211.0464,762.8096,215.0464,752.8096,211.0464,756.8096" style="stroke:#181818;stroke-width:1;"/><line style="stroke:#181818;stroke-width:1;" x1="211.0464" x2="211.0464" y1="626.0664" y2="646.0664"/><polygon fill="#181818" points="207.0464,636.0664,211.0464,646.0664,215.0464,636.0664,211.0464,640.0664" style="stroke:#181818;stroke-width:1;"/><line style="stroke:#181818;stroke-width:1;" x1="211.0464" x2="211.0464" y1="786.8096" y2="806.8096"/><polygon fill="#181818" points="207.0464,796.8096,211.0464,806.8096,215.0464,796.8096,211.0464,800.8096" style="stroke:#181818;stroke-width:1;"/><line style="stroke:#181818;stroke-width:1;" x1="211.0464" x2="211.0464" y1="840.9424" y2="860.9424"/><polygon fill="#181818" points="207.0464,850.9424,211.0464,860.9424,215.0464,850.9424,211.0464,854.9424" style="stroke:#181818;stroke-width:1;"/><line style="stroke:#181818;stroke-width:1;" x1="552.1558" x2="552.1558" y1="289.0039" y2="309.0039"/><polygon fill="#181818" points="548.1558,299.0039,552.1558,309.0039,556.1558,299.0039,552.1558,303.0039" style="stroke:#181818;stroke-width:1;"/><line style="stroke:#181818;stroke-width:1;" x1="211.0464" x2="211.0464" y1="220.7383" y2="225.7383"/><line style="stroke:#181818;stroke-width:1;" x1="211.0464" x2="552.1558" y1="225.7383" y2="225.7383"/><line style="stroke:#181818;stroke-width:1;" x1="552.1558" x2="552.1558" y1="225.7383" y2="240.7383"/><polygon fill="#181818" points="548.1558,230.7383,552.1558,240.7383,556.1558,230.7383,552.1558,234.7383" style="stroke:#181818;stroke-width:1;"/><line style="stroke:#181818;stroke-width:1;" x1="552.1558" x2="552.1558" y1="357.2695" y2="362.2695"/><line style="stroke:#181818;stroke-width:1;" x1="552.1558" x2="719.5024" y1="362.2695" y2="362.2695"/><line style="stroke:#181818;stroke-width:1;" x1="719.5024" x2="719.5024" y1="362.2695" y2="377.2695"/><polygon fill="#181818" points="715.5024,367.2695,719.5024,377.2695,723.5024,367.2695,719.5024,371.2695" style="stroke:#181818;stroke-width:1;"/><line style="stroke:#181818;stroke-width:1;" x1="719.5024" x2="719.5024" y1="425.5352" y2="430.5352"/><line style="stroke:#181818;stroke-width:1;" x1="719.5024" x2="850.8228" y1="430.5352" y2="430.5352"/><line style="stroke:#181818;stroke-width:1;" x1="850.8228" x2="850.8228" y1="430.5352" y2="445.5352"/><polygon fill="#181818" points="846.8228,435.5352,850.8228,445.5352,854.8228,435.5352,850.8228,439.5352" style="stroke:#181818;stroke-width:1;"/><line style="stroke:#181818;stroke-width:1;" x1="850.8228" x2="850.8228" y1="493.8008" y2="498.8008"/><line style="stroke:#181818;stroke-width:1;" x1="850.8228" x2="211.0464" y1="498.8008" y2="498.8008"/><line style="stroke:#181818;stroke-width:1;" x1="211.0464" x2="211.0464" y1="498.8008" y2="513.8008"/><polygon fill="#181818" points="207.0464,503.8008,211.0464,513.8008,215.0464,503.8008,211.0464,507.8008" style="stroke:#181818;stroke-width:1;"/><text fill="#000000" font-family="sans-serif" font-size="18" lengthAdjust="spacing" textLength="102.4541" x="191.0813" y="83.6758">Kh&#225;ch h&#224;ng</text><text fill="#000000" font-family="sans-serif" font-size="18" lengthAdjust="spacing" textLength="80.3057" x="511.0029" y="83.6758">H&#7879; th&#7889;ng</text><text fill="#000000" font-family="sans-serif" font-size="18" lengthAdjust="spacing" textLength="92.1533" x="672.4258" y="83.6758">Ng&#432;&#7901;i b&#225;n</text><text fill="#000000" font-family="sans-serif" font-size="18" lengthAdjust="spacing" textLength="49.4736" x="825.0859" y="83.6758">&#272;VVC</text><rect fill="#DDDDDD" height="75.9531" id="_legend" rx="7.5" ry="7.5" style="stroke:#000000;stroke-width:1;" width="280.4775" x="609.7056" y="894.9424"/><text fill="#000000" font-family="sans-serif" font-size="14" lengthAdjust="spacing" textLength="128.3037" x="614.7056" y="913.4775">Lu&#7891;ng ph&#7909; chi ti&#7871;t:</text><text fill="#000000" font-family="sans-serif" font-size="14" font-weight="bold" lengthAdjust="spacing" textLength="174.6104" x="614.7056" y="929.9658">02_luong_huy_don.puml</text><text fill="#000000" font-family="sans-serif" font-size="14" lengthAdjust="spacing" textLength="76.0977" x="793.7456" y="929.9658">&#8212; H&#7911;y &#273;&#417;n</text><text fill="#000000" font-family="sans-serif" font-size="14" font-weight="bold" lengthAdjust="spacing" textLength="176.7705" x="614.7056" y="946.4541">03_luong_tra_hang.puml</text><text fill="#000000" font-family="sans-serif" font-size="14" lengthAdjust="spacing" textLength="79.0098" x="795.9058" y="946.4541">&#8212; Tr&#7843; h&#224;ng</text><text fill="#000000" font-family="sans-serif" font-size="14" lengthAdjust="spacing" textLength="270.4775" x="614.7056" y="962.9424">Thanh to&#225;n / &#273;&#7893;i status: t&#7847;ng &#7913;ng d&#7909;ng</text><!--SRC=[dLHTQnD157sVNt51i4cm7rWGIK2feLLGf91G2hOiu-vaP-Zip6PsDYMG1zzyrA8-2WaYHQKWL12oY0zR-Z_6N-BTtOHkeRxuijdPU-uzvvvx9olmB7NPEnN2nLit_sc1vrCyt8O-fug3rVbCmPzNxw7liWyO6APKaHNe7Oj8KiMIDZpb-SpdYxm9F77PQx3SPIVbyNbu-Trb7mMyB0fDa6Llhqk85LQo_w0-K0rj0cQyc8uZfgmtaFfuBHdA9Y79aL0nDJI2XDD07mlC6L2Pi5faoxTY9Epu4VMFGgDJ5NIrr0PkxMplR7UtRqAMV0lKrlsDZSrxX4pgJKz8OgcnfDtd-TS8UhimogSQGk6oDnMYGzh_Rh63vUgcJKXxa2hVYoNrcLUoDve7waNCL52qj0ufIXJ18LRj6vTz0rku24TSeplMX5ME9ooBFA4IPcopuBWs2IJPTzaPoFmNgWa5rTLaaCVNQY1Cn09OVO1EYZX6riEYGed0pCS5lEm4uG6JOiGC2qh8TL_401hx-04KT_CpjVofJB16utCJL9XFnm-Rs3vJqF3pyoO1g2nOIF4CyncI14YtV4KsXgE5nZ3DPyigi7fz_MXgzLMrueGberWokp0sgLMyWmxcvnHrkVcdIcD1WgOFIDb9_ofmizpOQ9yb2SgrgL75o70j19Nu0UC1JgvwgQb7oXygR2vfS4rmE1m7WatrTZkuMJecHB8G0M14o2soBQzDZ6r-1fyBiCBDVzisnbgjZRkUJD5QZwTZBz1gBKuZsMgLDmdTEHt3nSdbJ5NOpGNM6khXIePrSArV1DSlvJgMm3if01VVflWVODty50Mvx0i-0rI5AONYIZZv2m00]--></g></svg>