<svg xmlns="http://www.w3.org/2000/svg" xmlns:xlink="http://www.w3.org/1999/xlink" contentStyleType="text/css" height="629px" preserveAspectRatio="none" style="width:518px;height:629px;background:#FFFFFF;" version="1.1" viewBox="0 0 518 629" width="518px" zoomAndPan="magnify"><title>Triggers &amp; H&#224;m nghi&#7879;p v&#7909; &#8212; order_payment_flow.sql</title><defs/><g><text fill="#000000" font-family="sans-serif" font-size="14" font-weight="bold" lengthAdjust="spacing" textLength="385.5742" x="65.0339" y="33.5352">Triggers &amp; H&#224;m nghi&#7879;p v&#7909; &#8212; order_payment_flow.sql</text><ellipse cx="138.4551" cy="57.4883" fill="#222222" rx="10" ry="10" style="stroke:#222222;stroke-width:1;"/><rect fill="none" height="139.998" style="stroke:#000000;stroke-width:1.5;" width="348.0654" x="46.9561" y="77.4883"/><path d="M172.8799,77.4883 L172.8799,86.9766 L162.8799,96.9766 L46.9561,96.9766 " fill="none" style="stroke:#000000;stroke-width:1.5;"/><text fill="#000000" font-family="sans-serif" font-size="14" lengthAdjust="spacing" textLength="115.9238" x="49.9561" y="92.0234">func_place_order</text><rect fill="#FEFECE" height="34.1328" rx="12.5" ry="12.5" style="stroke:#A80036;stroke-width:0.5;" width="162.998" x="56.9561" y="113.9766"/><text fill="#000000" font-family="sans-serif" font-size="12" lengthAdjust="spacing" textLength="142.998" x="66.9561" y="135.5781">INSERT Orders (pending)</text><path d="M226.252,164.8652 L226.252,181.1758 L206.252,185.1758 L226.252,189.1758 L226.252,205.4863 A0,0 0 0 0 226.252,205.4863 L385.0215,205.4863 A0,0 0 0 0 385.0215,205.4863 L385.0215,174.8652 L375.0215,164.8652 L226.252,164.8652 A0,0 0 0 0 226.252,164.8652 " fill="#FEFFDD" style="stroke:#181818;stroke-width:0.5;"/><path d="M375.0215,164.8652 L375.0215,174.8652 L385.0215,174.8652 L375.0215,164.8652 " fill="#FEFFDD" style="stroke:#181818;stroke-width:0.5;"/><text fill="#000000" font-family="sans-serif" font-size="13" lengthAdjust="spacing" textLength="135.7129" x="232.252" y="182.4336">trg_order_item_insert</text><text fill="#000000" font-family="sans-serif" font-size="13" lengthAdjust="spacing" textLength="137.7695" x="232.252" y="197.7441">-&gt; tr&#7915; Products.stock</text><rect fill="#FEFECE" height="34.1328" rx="12.5" ry="12.5" style="stroke:#A80036;stroke-width:0.5;" width="135.5938" x="70.6582" y="168.1094"/><text fill="#000000" font-family="sans-serif" font-size="12" lengthAdjust="spacing" textLength="115.5938" x="80.6582" y="189.7109">INSERT Order_Items</text><rect fill="none" height="97.4199" style="stroke:#000000;stroke-width:1.5;" width="414.4849" x="34.502" y="227.4863"/><path d="M167.4736,227.4863 L167.4736,236.9746 L157.4736,246.9746 L34.502,246.9746 " fill="none" style="stroke:#000000;stroke-width:1.5;"/><text fill="#000000" font-family="sans-serif" font-size="14" lengthAdjust="spacing" textLength="122.9717" x="37.502" y="242.0215">func_cancel_order</text><path d="M252.4082,256.9746 L252.4082,280.9404 L232.4082,284.9404 L252.4082,288.9404 L252.4082,312.9063 A0,0 0 0 0 252.4082,312.9063 L438.9868,312.9063 A0,0 0 0 0 438.9868,312.9063 L438.9868,266.9746 L428.9868,256.9746 L252.4082,256.9746 A0,0 0 0 0 252.4082,256.9746 " fill="#FEFFDD" style="stroke:#181818;stroke-width:0.5;"/><path d="M428.9868,256.9746 L428.9868,266.9746 L438.9868,266.9746 L428.9868,256.9746 " fill="#FEFFDD" style="stroke:#181818;stroke-width:0.5;"/><text fill="#000000" font-family="sans-serif" font-size="13" lengthAdjust="spacing" textLength="165.5786" x="258.4082" y="274.543">trg_orders_validate_status</text><text fill="#000000" font-family="sans-serif" font-size="13" lengthAdjust="spacing" textLength="156.7935" x="262.5215" y="289.8535">trg_orders_restore_stock</text><text fill="#000000" font-family="sans-serif" font-size="13" lengthAdjust="spacing" textLength="81.0342" x="258.4082" y="305.1641">-&gt; ho&#224;n kho</text><rect fill="#FEFECE" height="34.1328" rx="12.5" ry="12.5" style="stroke:#A80036;stroke-width:0.5;" width="187.9063" x="44.502" y="267.874"/><text fill="#000000" font-family="sans-serif" font-size="12" lengthAdjust="spacing" textLength="167.9063" x="54.502" y="289.4756">UPDATE Orders -&gt; cancelled</text><rect fill="none" height="142.998" style="stroke:#000000;stroke-width:1.5;" width="496.6421" x="11" y="334.9063"/><path d="M158.9492,334.9063 L158.9492,344.3945 L148.9492,354.3945 L11,354.3945 " fill="none" style="stroke:#000000;stroke-width:1.5;"/><text fill="#000000" font-family="sans-serif" font-size="14" lengthAdjust="spacing" textLength="137.9492" x="14" y="349.4414">func_process_return</text><path d="M275.9102,371.1504 L275.9102,387.4609 L255.9102,391.4609 L275.9102,395.4609 L275.9102,411.7715 A0,0 0 0 0 275.9102,411.7715 L497.6421,411.7715 A0,0 0 0 0 497.6421,411.7715 L497.6421,381.1504 L487.6421,371.1504 L275.9102,371.1504 A0,0 0 0 0 275.9102,371.1504 " fill="#FEFFDD" style="stroke:#181818;stroke-width:0.5;"/><path d="M487.6421,371.1504 L487.6421,381.1504 L497.6421,381.1504 L487.6421,371.1504 " fill="#FEFFDD" style="stroke:#181818;stroke-width:0.5;"/><text fill="#000000" font-family="sans-serif" font-size="13" lengthAdjust="spacing" textLength="200.7319" x="281.9102" y="388.7188">trg_order_items_validate_return</text><text fill="#000000" font-family="sans-serif" font-size="13" lengthAdjust="spacing" textLength="191.293" x="286.0234" y="404.0293">trg_order_items_restore_stock</text><rect fill="#FEFECE" height="34.1328" rx="12.5" ry="12.5" style="stroke:#A80036;stroke-width:0.5;" width="234.9102" x="21" y="374.3945"/><text fill="#000000" font-family="sans-serif" font-size="12" lengthAdjust="spacing" textLength="214.9102" x="31" y="395.9961">UPDATE Order_Items return_quantity</text><path d="M255.1709,436.1826 L255.1709,444.8379 L235.1709,448.8379 L255.1709,452.8379 L255.1709,461.4932 A0,0 0 0 0 255.1709,461.4932 L441.7495,461.4932 A0,0 0 0 0 441.7495,461.4932 L441.7495,446.1826 L431.7495,436.1826 L255.1709,436.1826 A0,0 0 0 0 255.1709,436.1826 " fill="#FEFFDD" style="stroke:#181818;stroke-width:0.5;"/><path d="M431.7495,436.1826 L431.7495,446.1826 L441.7495,446.1826 L431.7495,436.1826 " fill="#FEFFDD" style="stroke:#181818;stroke-width:0.5;"/><text fill="#000000" font-family="sans-serif" font-size="13" lengthAdjust="spacing" textLength="165.5786" x="261.1709" y="453.751">trg_orders_validate_status</text><rect fill="#FEFECE" height="34.1328" rx="12.5" ry="12.5" style="stroke:#A80036;stroke-width:0.5;" width="193.4316" x="41.7393" y="431.7715"/><text fill="#000000" font-family="sans-serif" font-size="12" lengthAdjust="spacing" textLength="173.4316" x="51.7393" y="453.373">UPDATE Orders refund/status</text><rect fill="none" height="88.8652" style="stroke:#000000;stroke-width:1.5;" width="408.6021" x="37.4434" y="487.9043"/><path d="M403.4863,487.9043 L403.4863,497.3926 L393.4863,507.3926 L37.4434,507.3926 " fill="none" style="stroke:#000000;stroke-width:1.5;"/><text fill="#000000" font-family="sans-serif" font-size="14" lengthAdjust="spacing" textLength="356.043" x="40.4434" y="502.4395">func_confirm_received / func_auto_complete_orders</text><path d="M249.4668,524.1484 L249.4668,540.459 L229.4668,544.459 L249.4668,548.459 L249.4668,564.7695 A0,0 0 0 0 249.4668,564.7695 L436.0454,564.7695 A0,0 0 0 0 436.0454,564.7695 L436.0454,534.1484 L426.0454,524.1484 L249.4668,524.1484 A0,0 0 0 0 249.4668,524.1484 " fill="#FEFFDD" style="stroke:#181818;stroke-width:0.5;"/><path d="M426.0454,524.1484 L426.0454,534.1484 L436.0454,534.1484 L426.0454,524.1484 " fill="#FEFFDD" style="stroke:#181818;stroke-width:0.5;"/><text fill="#000000" font-family="sans-serif" font-size="13" lengthAdjust="spacing" textLength="165.5786" x="255.4668" y="541.7168">trg_orders_validate_status</text><text fill="#000000" font-family="sans-serif" font-size="13" lengthAdjust="spacing" textLength="122.0464" x="259.5801" y="557.0273">ch&#7889;t seller_revenue</text><rect fill="#FEFECE" height="34.1328" rx="12.5" ry="12.5" style="stroke:#A80036;stroke-width:0.5;" width="182.0234" x="47.4434" y="527.3926"/><text fill="#000000" font-family="sans-serif" font-size="12" lengthAdjust="spacing" textLength="162.0234" x="57.4434" y="548.9941">UPDATE Orders -&gt; received</text><ellipse cx="138.4551" cy="607.7695" fill="none" rx="11" ry="11" style="stroke:#222222;stroke-width:1;"/><ellipse cx="138.4551" cy="607.7695" fill="#222222" rx="6" ry="6" style="stroke:#222222;stroke-width:1;"/><line style="stroke:#181818;stroke-width:1;" x1="138.4551" x2="138.4551" y1="148.1094" y2="168.1094"/><polygon fill="#181818" points="134.4551,158.1094,138.4551,168.1094,142.4551,158.1094,138.4551,162.1094" style="stroke:#181818;stroke-width:1;"/><line style="stroke:#181818;stroke-width:1;" x1="138.4551" x2="138.4551" y1="67.4883" y2="113.9766"/><polygon fill="#181818" points="134.4551,103.9766,138.4551,113.9766,142.4551,103.9766,138.4551,107.9766" style="stroke:#181818;stroke-width:1;"/><line style="stroke:#181818;stroke-width:1;" x1="138.4551" x2="138.4551" y1="202.2422" y2="267.874"/><polygon fill="#181818" points="134.4551,257.874,138.4551,267.874,142.4551,257.874,138.4551,261.874" style="stroke:#181818;stroke-width:1;"/><line style="stroke:#181818;stroke-width:1;" x1="138.4551" x2="138.4551" y1="408.5273" y2="431.7715"/><polygon fill="#181818" points="134.4551,421.7715,138.4551,431.7715,142.4551,421.7715,138.4551,425.7715" style="stroke:#181818;stroke-width:1;"/><line style="stroke:#181818;stroke-width:1;" x1="138.4551" x2="138.4551" y1="302.0068" y2="374.3945"/><polygon fill="#181818" points="134.4551,364.3945,138.4551,374.3945,142.4551,364.3945,138.4551,368.3945" style="stroke:#181818;stroke-width:1;"/><line style="stroke:#181818;stroke-width:1;" x1="138.4551" x2="138.4551" y1="465.9043" y2="527.3926"/><polygon fill="#181818" points="134.4551,517.3926,138.4551,527.3926,142.4551,517.3926,138.4551,521.3926" style="stroke:#181818;stroke-width:1;"/><line style="stroke:#181818;stroke-width:1;" x1="138.4551" x2="138.4551" y1="561.5254" y2="596.7695"/><polygon fill="#181818" points="134.4551,586.7695,138.4551,596.7695,142.4551,586.7695,138.4551,590.7695" style="stroke:#181818;stroke-width:1;"/><!--SRC=[bPF1QXH148RlynH514qE9W51905XZHEIYqPTRu6cwQwTQRQdUr9TFM4HmPjdmGV8nPEFiCSyoVeagTdPuCPiHA_rrr__rzNTJ-1TrW7gnVmhZCbL5LA2JiE9RY1KjSCMkWpRsh3h7CyWySpZJb6mOu-_7O_XvFfgSCWayIpcF-3Nb-yGoIAfLiyQ3AmcFbxkfWjV56dgGgj9KbAjRRnqeOA9zWdNbD4gz9KsqufY3lOe-aZmwBWyBe_AJPtBk5NNwCN-_hFd4iMQk2YaKw1T3B0roS6erck3QcdOWay5mC7fcm_b-p6yxKi9jbiCLh1s3l_Kr2bZa_foY8mWEwZv09YgOPfo8YiN4XAVXwSlHLdCVy8PHPiDfzt4qKoBp_U9Z0u6_HsaZsUlH-Fo5abc3JqUxOFnINNQEwiPbPoSSpeFwoAXv5El2SKIhuxNLm6cTTp4r58qc7eRPmeRg8PbmA2h2tbCuf_zVJbhY8Dl7N7LSOVp_Ye81S_k3IVyzrriN7iC4qUD91fq7LhOWsLTPuuYDgr7NZsKzD2rt7h_wrQC_Bfl3Ac_JvBu3aF6db3Et1Ot]--></g></svg>